<?xml version="1.0" standalone="no"?>
<!DOCTYPE svg PUBLIC "-//W3C//DTD SVG 1.1//EN" "http://www.w3.org/Graphics/SVG/1.1/DTD/svg11.dtd" >
<svg>
<metadata>
Created by FontForge 20090914 at Sat Jan  9 01:18:19 2016
 By www-data
URW Software, Copyright 1994 by URW
</metadata>
<defs>
<font id="HandelGotD-Ligh" horiz-adv-x="512" >
  <font-face 
    font-family="HandelGotDLig"
    font-weight="400"
    font-stretch="normal"
    units-per-em="2048"
    panose-1="2 11 6 4 3 7 4 3 2 4"
    ascent="1673"
    descent="-375"
    x-height="997"
    cap-height="1365"
    bbox="-379 -512 2555 2047"
    underline-thickness="172"
    underline-position="-78"
    unicode-range="U+0020-U+F002"
  />
<missing-glyph horiz-adv-x="2047" 
d="M127 0v2047h1793v-2047h-1793zM1793 127v1793h-1539v-1793h1539z" />
    <glyph glyph-name=".notdef" horiz-adv-x="2047" 
d="M127 0v2047h1793v-2047h-1793zM1793 127v1793h-1539v-1793h1539z" />
    <glyph glyph-name="space" unicode=" " 
 />
    <glyph glyph-name="exclam" unicode="!" horiz-adv-x="489" 
d="M347 1365v-1049h-205v1049h205zM347 222v-222h-205v222h205z" />
    <glyph glyph-name="quotedbl" unicode="&#x22;" horiz-adv-x="689" 
d="M241 816h-138v549h138v-549zM586 816h-138v549h138v-549z" />
    <glyph glyph-name="numbersign" unicode="#" horiz-adv-x="1248" 
d="M426 1297h178l-55 -345h232l55 345h177l-54 -345h252l-21 -137h-253l-38 -237h253l-22 -137h-252l-59 -373h-178l59 373h-232l-59 -373h-178l60 373h-253l22 137h252l38 237h-253l22 137h252zM759 815h-232l-37 -237h232z" />
    <glyph glyph-name="dollar" unicode="$" horiz-adv-x="1304" 
d="M586 174v424.001c-130.667 0 -229 10.667 -295 32c-74 24 -130.333 68.667 -169 134c-32 54 -48 117.667 -48 191c0 87.333 22.333 164.666 67 231.999c78.667 118.667 217.667 178 417 178h28v197h133v-197h446v-174h-446v-396c124 0 217 -9.33301 279 -28
c84 -24 147.333 -81.667 190 -173c28 -60 42 -127.667 42 -203c0 -90 -21.667 -166.667 -65 -230c-54 -79.333 -136.333 -128.333 -247 -147c-60 -10 -114 -15 -162 -15l-37 1v-201h-133v201h-463v174h463zM719 174.001l53.9971 1.00195c70.667 0 125.834 18.5 165.501 55.5
s59.5 88.5 59.5 154.5c0 57.333 -13.167 103.666 -39.5 138.999s-63.5 57.666 -111.5 66.999c-13.333 2 -30.666 3.66699 -51.999 5s-46.666 2 -75.999 2v-424zM585.997 1191h-30c-166.667 0 -250 -68.333 -250 -205c0 -96.667 48.333 -156.334 145 -179.001
c7.33301 -1.33301 19.333 -3.16602 36 -5.49902s39 -3.5 67 -3.5c14 0 24.667 -0.666992 32 -2v395z" />
    <glyph glyph-name="percent" unicode="%" horiz-adv-x="1809" 
d="M460 1376c115.333 0 201 -28.332 257 -84.999c58.667 -60.667 88 -150.334 88 -269.001c0 -114.667 -28 -205 -84 -271s-145.333 -99 -268 -99c-132.667 0 -227.5 29.5 -284.5 88.5s-85.5 149.167 -85.5 270.5c0 123.333 30.667 215 92 275s156.333 90 285 90zM442 1257
c-69.333 0 -120.833 -18.833 -154.5 -56.5s-50.5 -96.167 -50.5 -175.5c0 -169.333 70 -254 210 -254c135.333 0 203 80.333 203 241c0 87.333 -16 150 -48 188s-85.333 57 -160 57zM1113 1393h141l-558 -1420h-140zM1380 713.001c116 0 202.5 -29.168 259.5 -87.501
s85.5 -147.166 85.5 -266.499c0 -114.667 -28 -205 -84 -271s-145 -99 -267 -99c-133.333 0 -228.333 29.5 -285 88.5s-85 149.167 -85 270.5c0 123.333 30.667 215 92 275s156 90 284 90zM1362 594c-69.333 0 -120.667 -19 -154 -57s-50 -96.333 -50 -175
c0 -169.333 70 -254 210 -254c134.667 0 202 80.333 202 241c0 88 -15.833 150.833 -47.5 188.5s-85.167 56.5 -160.5 56.5z" />
    <glyph glyph-name="ampersand" unicode="&#x26;" horiz-adv-x="1515" 
d="M1504 802l-0.00195312 -174.001h-220c0 -136.667 -7.66699 -234 -23 -292c-28.667 -112.667 -96 -200.167 -202 -262.5s-241 -93.5 -405 -93.5c-178.667 0 -311.667 25.333 -399 76c-119.333 68 -179 171.333 -179 310c0 78.667 16.667 143.334 50 194.001
s89.333 97.334 168 140.001c-43.333 16.667 -77.666 33.667 -102.999 51c-23.333 17.333 -43.666 40 -60.999 68c-32 49.333 -48 108.666 -48 177.999c0 131.333 46 229 138 293c72 50 187 75 345 75h515v-174h-490c-67.333 0 -116.5 -4.16699 -147.5 -12.5
s-58.167 -25.5 -81.5 -51.5c-32 -36 -48 -82.333 -48 -139c0 -60.667 24 -109 72 -145c18.667 -14 44.5 -24.333 77.5 -31s82.167 -10 147.5 -10h133v-174l-84 1c-118 0 -203 -17 -255 -51c-64 -42 -96 -102.333 -96 -181c0 -78 31 -138 93 -180s151 -63 267 -63
c141.333 0 245.5 34 312.5 102s100.5 173.333 100.5 316l-1 56h-220v174h644z" />
    <glyph glyph-name="quotesingle" unicode="'" horiz-adv-x="345" 
d="M241 816h-138v549h138v-549z" />
    <glyph glyph-name="parenleft" unicode="(" horiz-adv-x="782" 
d="M718 1535l0.000976562 -163.999c-145.333 -16.667 -254 -82.667 -326 -198c-33.333 -53.333 -58.333 -123.833 -75 -211.5s-25 -194.5 -25 -320.5c0 -68.667 2.33301 -130 7 -184s12 -101 22 -141c20 -77.333 53.333 -141 100 -191
c67.333 -71.333 166.333 -113.666 297 -126.999v-164c-108.667 0 -203.334 19.667 -284.001 59s-147 95.666 -199 168.999c-98.667 140 -148 336.333 -148 589c0 324 69.667 560 209 708c52 55.333 111.333 97.666 178 126.999c74 32.667 155.333 49 244 49z" />
    <glyph glyph-name="parenright" unicode=")" horiz-adv-x="782" 
d="M87 1535c94.667 0 181 -18.665 259 -55.998c73.333 -34.667 136 -84 188 -148c61.333 -75.333 107.333 -169.333 138 -282s46 -245.334 46 -398.001c0 -264.667 -52 -464.667 -156 -600c-54 -69.333 -120.5 -122.833 -199.5 -160.5s-170.833 -56.5 -275.5 -56.5v164
c129.333 12 228.333 54.333 297 127c46 48 79 111.667 99 191s30 187.666 30 324.999c0 248 -33.333 425.333 -100 532c-71.333 114 -180 180 -326 198v164z" />
    <glyph glyph-name="asterisk" unicode="*" horiz-adv-x="732" 
d="M228 787l-109 85l151 165l-209 60l47 125l196 -66l-5 209h133l-5 -209l196 66l47 -125l-209 -60l151 -165l-109 -85l-138 171z" />
    <glyph glyph-name="plus" unicode="+" horiz-adv-x="1126" 
d="M68 612v173h406v383h177v-383h407v-173h-407v-383h-177v383h-406z" />
    <glyph glyph-name="comma" unicode="," horiz-adv-x="439" 
d="M329 222v-198l-136 -280h-105l105 256h-69v222h205z" />
    <glyph glyph-name="hyphen" unicode="-" horiz-adv-x="683" 
d="M683 625v-157h-683v157h683z" />
    <glyph glyph-name="period" unicode="." horiz-adv-x="425" 
d="M315 222v-222h-205v222h205z" />
    <glyph glyph-name="slash" unicode="/" horiz-adv-x="980" 
d="M93 -158h-172l966 1682h171z" />
    <glyph glyph-name="zero" unicode="0" horiz-adv-x="1434" 
d="M721 1376c222 0 384.666 -55.001 487.999 -165.001c48 -52.667 85.833 -124.667 113.5 -216s41.5 -190.333 41.5 -297c0 -110 -14.333 -212 -43 -306c-42 -140 -110.167 -242.167 -204.5 -306.5s-222.166 -96.5 -383.499 -96.5c-239.333 0 -411 57.333 -515 172
c-99.333 111.333 -149 283.333 -149 516c0 61.333 3.66699 118 11 170s19.333 102.667 36 152c48 146.667 135.667 250.334 263 311.001c94 44 208 66 342 66zM712.999 1202c-178 0 -295.999 -62.667 -353.999 -188c-38.667 -85.333 -58 -189.333 -58 -312
c0 -186.667 32.167 -323.167 96.5 -409.5s167.166 -129.5 308.499 -129.5c166 0 281 52 345 156c54 87.333 81 218 81 392c0 86.667 -8 160.834 -24 222.501s-40.5 111.667 -73.5 150s-76.667 67.666 -131 87.999s-117.833 30.5 -190.5 30.5z" />
    <glyph glyph-name="one" unicode="1" 
d="M365 0h-218v1365h218v-1365z" />
    <glyph glyph-name="two" unicode="2" horiz-adv-x="1270" 
d="M292 174l908.001 -0.00195312v-174h-1126v366c0 94 7 163.833 21 209.5s41.167 86 81.5 121s89.166 60.5 146.499 76.5c28 7.33301 60.333 13 97 17s78 6 124 6h89c118 0 197 11 237 33c64.667 36.667 97 96 97 178c0 72 -27.667 123.667 -83 155
c-35.333 19.333 -110 29 -224 29h-574v174h599c66.667 0 122 -1.33301 166 -4s76.667 -7 98 -13c89.333 -24 157 -76.667 203 -158c31.333 -58.667 47 -122 47 -190c0 -88.667 -25.667 -164.667 -77 -228c-44 -55.333 -98.333 -94.166 -163 -116.499s-156 -33.5 -274 -33.5
h-123c-104 0 -175 -16.167 -213 -48.5s-57 -94.166 -57 -185.499v-214z" />
    <glyph glyph-name="three" unicode="3" horiz-adv-x="1236" 
d="M69 0l-0.000976562 173.999h555c110 0 186.333 17.333 229 52c47.333 38 71 91 71 159c0 84 -29.667 145.333 -89 184c-46 30 -126 45 -240 45h-391v174h420c69.333 0 119 2.83301 149 8.5s56.667 16.5 80 32.5c56 38 84 93.667 84 167c0 82 -32.667 138.333 -98 169
c-38.667 17.333 -104 26 -196 26h-574v174h594c162.667 0 276.334 -18.333 341.001 -55c49.333 -27.333 88 -67.666 116 -120.999s42 -113.333 42 -180c0 -76.667 -18.5 -138.5 -55.5 -185.5s-99.833 -88.5 -188.5 -124.5c61.333 -18 109 -42 143 -72
c65.333 -58 98 -141.333 98 -250c0 -82.667 -22.333 -154.667 -67 -216c-57.333 -80 -136.666 -129 -237.999 -147c-52.667 -9.33301 -134.334 -14 -245.001 -14h-540z" />
    <glyph glyph-name="four" unicode="4" horiz-adv-x="1429" 
d="M48 318v185l791 862h334v-873h201v-174h-201v-318h-218v318h-907zM276 492h679v739z" />
    <glyph glyph-name="five" unicode="5" horiz-adv-x="1339" 
d="M1177 1365l0.000976562 -173.999h-849v-386h428c103.333 0 180.666 -5.16699 231.999 -15.5s96 -29.5 134 -57.5c94.667 -72.667 142 -179.667 142 -321c0 -156 -58 -271 -174 -345c-39.333 -24.667 -86 -41.834 -140 -51.501s-132.333 -14.5 -235 -14.5h-605v174h615
c99.333 0 170.666 13 213.999 39c62 38 93 104 93 198c0 83.333 -26.667 143.333 -80 180c-21.333 14.667 -47.666 25 -78.999 31s-77 9 -137 9h-626v734h1067z" />
    <glyph glyph-name="six" unicode="6" horiz-adv-x="1371" 
d="M310 823h431.999c103.333 0 183.333 -5.16699 240 -15.5s105 -28.166 145 -53.499c113.333 -72 170 -181.667 170 -329c0 -160 -65 -279.667 -195 -359c-84.667 -51.333 -208 -77 -370 -77c-98 0 -180.667 8.5 -248 25.5s-127 44.167 -179 81.5
c-157.333 112 -236 299.333 -236 562c0 292 91 498.667 273 620c47.333 31.333 99 53.666 155 66.999s126.333 20 211 20h541v-174h-507c-73.333 0 -129.666 -3.66699 -168.999 -11s-73.333 -20 -102 -38c-50 -28.667 -88.667 -69 -116 -121c-30 -56 -45 -122 -45 -198z
M300.999 649l-1 -53.001c0 -288.667 144.333 -433 433 -433c106 0 186 20 240 60c61.333 45.333 92 110.333 92 195c0 76.667 -26.333 136.334 -79 179.001c-44 34.667 -121 52 -231 52h-454z" />
    <glyph glyph-name="seven" unicode="7" horiz-adv-x="1257" 
d="M1209 1365v-247l-745 -1118h-245l801 1191h-972v174h1161z" />
    <glyph glyph-name="eight" unicode="8" horiz-adv-x="1454" 
d="M303 703c-67.333 24.667 -116.666 54.666 -147.999 89.999c-46 50 -69 115.333 -69 196c0 152 71 259 213 321c102 44 255 66 459 66c200 0 344.667 -26.333 434 -79c114 -67.333 171 -166.333 171 -297c0 -98 -33.333 -174.333 -100 -229
c-24.667 -19.333 -65.334 -42 -122.001 -68c67.333 -21.333 117.666 -48 150.999 -80c55.333 -53.333 83 -128 83 -224c0 -141.333 -61.667 -250.333 -185 -327c-46.667 -29.333 -105 -50.666 -175 -63.999c-34.667 -6 -74.667 -10.667 -120 -14s-96.666 -5 -153.999 -5
c-61.333 0 -117 1.33301 -167 4s-93.667 7 -131 13c-74 12 -134.333 31.667 -181 59c-122 69.333 -183 174.333 -183 315c0 96 28.667 173.667 86 233c28 29.333 74 59.333 138 90zM740 1202c-141.333 0 -243.667 -12.001 -307 -36.001c-36 -14 -64.167 -36.167 -84.5 -66.5
s-30.5 -65.166 -30.5 -104.499c0 -84 37.667 -140 113 -168c54 -18.667 154 -28 300 -28c139.333 0 234.333 10.667 285 32c76.667 32 115 87 115 165c0 88 -40.333 147 -121 177c-52.667 19.333 -142.667 29 -270 29zM724.999 629.998c-142 0 -242 -14.333 -300 -43
c-76 -36 -114 -98.333 -114 -187c0 -82 33.667 -142 101 -180s175.333 -57 324 -57c137.333 0 238 18 302 54c70 39.333 105 99 105 179c0 84 -32.167 144 -96.5 180s-171.5 54 -321.5 54z" />
    <glyph glyph-name="nine" unicode="9" horiz-adv-x="1371" 
d="M1061 543h-431.998c-102 0 -181.333 5 -238 15s-105.667 28 -147 54c-113.333 72 -170 181.667 -170 329c0 102 28.667 189.667 86 263c46.667 59.333 108.167 102.833 184.5 130.5s174.5 41.5 294.5 41.5c49.333 0 94 -2 134 -6s77.333 -10.667 112 -20
c67.333 -16 127.666 -43 180.999 -81c157.333 -112 236 -299 236 -561c0 -247.333 -65 -433.666 -195 -558.999c-56 -52.667 -117.5 -90.667 -184.5 -114s-153.5 -35 -259.5 -35h-541v174h507c73.333 0 129.666 3.66699 168.999 11s73.333 20 102 38
c50 29.333 88.667 69.666 116 120.999c30 56 45 122.333 45 199zM1070 717l1 53.001c0 288 -144.333 432 -433 432c-106 0 -186 -20 -240 -60c-61.333 -45.333 -92 -110 -92 -194c0 -76.667 26.333 -136.334 79 -179.001c44 -34.667 121 -52 231 -52h454z" />
    <glyph glyph-name="colon" unicode=":" horiz-adv-x="425" 
d="M315 222v-222h-205v222h205zM315 666v-222h-205v222h205z" />
    <glyph glyph-name="semicolon" unicode=";" horiz-adv-x="439" 
d="M329 666v-222h-205v222h205zM329 222v-198l-136 -280h-105l105 256h-69v222h205z" />
    <glyph glyph-name="less" unicode="&#x3c;" horiz-adv-x="1024" 
d="M955 1224v-217l-655 -314l655 -314v-215l-887 438v185z" />
    <glyph glyph-name="equal" unicode="=" horiz-adv-x="1126" 
d="M68 950h990v-173h-990v173zM68 620h990v-173h-990v173z" />
    <glyph glyph-name="greater" unicode="&#x3e;" horiz-adv-x="1024" 
d="M69 163v217l655 313l-655 315v215l887 -438v-185z" />
    <glyph glyph-name="question" unicode="?" horiz-adv-x="1154" 
d="M128 1365l565.002 0.00292969c74.667 0 135.167 -6 181.5 -18s86.166 -32.333 119.499 -61c74.667 -62.667 112 -152 112 -268c0 -64.667 -13.833 -124.834 -41.5 -180.501s-65.5 -98.834 -113.5 -129.501c-33.333 -20.667 -74.333 -35.667 -123 -45
s-110.334 -14 -185.001 -14h-96c-96.667 0 -158 -12.333 -184 -37c-12 -12 -20 -29.167 -24 -51.5s-6 -61.5 -6 -117.5v-127h-205v144c0 93.333 4.5 158.833 13.5 196.5s27 70 54 97s63 45.333 108 55s116.5 14.5 214.5 14.5h125c154 0 231 63.667 231 191
c0 71.333 -23 120.666 -69 147.999c-32.667 19.333 -93 29 -181 29h-496v174zM333.002 222.003v-222h-205v222h205z" />
    <glyph glyph-name="at" unicode="@" horiz-adv-x="1574" 
d="M1179 115l-0.00292969 -115h-436c-119.333 0 -217 11 -293 33c-118 34 -211 112.833 -279 236.5s-102 261.5 -102 413.5c0 152.667 33.667 290 101 412c64 117.333 157.333 197.333 280 240c96.667 33.333 215 50 355 50c216 0 380 -40 492 -120
c64 -44.667 114.5 -106.834 151.5 -186.501s55.5 -163.167 55.5 -250.5c0 -102.667 -25 -199.667 -75 -291c-32 -57.333 -70 -103.666 -114 -138.999c-40.667 -32.667 -97.667 -61.334 -171 -86.001h-408c-84 0 -139.5 2.83301 -166.5 8.5s-55.167 19.834 -84.5 42.501
c-62.667 47.333 -94 120 -94 218c0 82.667 14 158.5 42 227.5s66.667 122.167 116 159.5c39.333 30 83.333 52 132 66c24 6.66699 50.333 11.667 79 15s62 5 100 5h305l-87 -616h96c38.667 28.667 66.667 56.334 84 83.001c56 86 84 187.667 84 305
c0 78.667 -13.5 150.667 -40.5 216s-63.833 114.666 -110.5 147.999c-75.333 54 -202.666 81 -381.999 81c-123.333 0 -220.666 -12 -291.999 -36c-51.333 -16.667 -95 -43 -131 -79c-33.333 -33.333 -62 -81 -86 -143c-38.667 -100.667 -58 -210.667 -58 -330
c0 -118.667 19 -226.167 57 -322.5s88.333 -161.333 151 -195s164.334 -50.5 305.001 -50.5h424zM969.997 914l-140.999 -0.000976562c-94.667 0 -160 -26.333 -196 -79c-19.333 -28.667 -34 -61.667 -44 -99s-15 -79 -15 -125c0 -55.333 14.167 -95.666 42.5 -120.999
s74.166 -38 137.499 -38h151z" />
    <glyph glyph-name="A" unicode="A" horiz-adv-x="1411" 
d="M8 0l565 1365h287l543 -1365h-232l-139 357h-647l-145 -357h-232zM713 1202l-262 -671h511z" />
    <glyph glyph-name="B" unicode="B" horiz-adv-x="1370" 
d="M147 0v1365h653c104.667 0 184 -7.16699 238 -21.5s99.333 -40.833 136 -79.5c64 -66 96 -149 96 -249c0 -143.333 -70 -248 -210 -314c64.667 -22 113.667 -50.667 147 -86c56 -56 84 -132.333 84 -229c0 -135.333 -49.333 -238 -148 -308
c-74 -52 -206.333 -78 -397 -78h-599zM365 788h435c79.333 0 137 13.667 173 41c48 36 72 89.667 72 161c0 63.333 -19 114 -57 152c-20 19.333 -43 32.333 -69 39s-65.667 10 -119 10h-435v-403zM365 174l416 -0.000976562c185.333 0 278 75.667 278 227
c0 74.667 -20.333 128.834 -61 162.501s-106.667 50.5 -198 50.5h-435v-440z" />
    <glyph glyph-name="C" unicode="C" horiz-adv-x="1239" 
d="M1169 174l0.000976562 -174h-424c-120.667 0 -217 10 -289 30c-141.333 40 -246 134 -314 282c-48.667 107.333 -73 227.666 -73 360.999c0 158.667 33 299 99 421c54 99.333 122.833 169.333 206.5 210s203.167 61 358.5 61h436v-174h-424
c-93.333 0 -163.333 -7.16699 -210 -21.5s-86.334 -40.833 -119.001 -79.5c-35.333 -41.333 -63.333 -99.666 -84 -174.999s-31 -158 -31 -248c0 -168 39.333 -296.667 118 -386c36 -40.667 78.833 -68.667 128.5 -84s121.5 -23 215.5 -23h406z" />
    <glyph glyph-name="D" unicode="D" horiz-adv-x="1424" 
d="M147 1365h523.999c145.333 0 251.333 -10.333 318 -31c124.667 -38.667 222.334 -127 293.001 -265c48.667 -97.333 73 -222 73 -374c0 -304 -82.667 -508.667 -248 -614c-48.667 -31.333 -102 -53 -160 -65c-30 -5.33301 -65 -9.33301 -105 -12s-90.333 -4 -151 -4h-544
v1365zM364.999 1191l0.000976562 -1017h348c153.333 0 261.666 45 324.999 135c56.667 82.667 85 201.667 85 357c0 176.667 -32.667 310.667 -98 402c-30.667 43.333 -71.5 74.666 -122.5 93.999s-119.167 29 -204.5 29h-333z" />
    <glyph glyph-name="E" unicode="E" horiz-adv-x="1220" 
d="M1125 1365l0.000976562 -174h-398c-72.667 0 -129.667 -5 -171 -15s-77.333 -27.667 -108 -53c-44.667 -35.333 -77.667 -80 -99 -134c-12 -31.333 -21.667 -64.166 -29 -98.499s-11 -72.833 -11 -115.5h816v-174h-816c0 -50.667 5.16699 -98 15.5 -142
s26.833 -85.667 49.5 -125c34 -58 76.667 -99.167 128 -123.5s122.666 -36.5 213.999 -36.5h409v-174h-449c-114 0 -207 13 -279 39c-127.333 46 -221 147.667 -281 305c-32 84 -48 188 -48 312c0 163.333 26 296.666 78 399.999c58 111.333 131.667 191 221 239
c44 22.667 97.167 40 159.5 52s133.5 18 213.5 18h385z" />
    <glyph glyph-name="F" unicode="F" horiz-adv-x="1226" 
d="M1147 775v-174.001h-799v-601h-218v824c0 82.667 3.66699 144.5 11 185.5s21 80.833 41 119.5c44 86.667 108.667 147.667 194 183c42.667 18 93.667 31.333 153 40s131 13 215 13h403v-174h-422c-104 0 -177.667 -10.667 -221 -32c-53.333 -24 -93 -60.667 -119 -110
c-11.333 -23.333 -20.333 -51.666 -27 -84.999s-10 -70.333 -10 -111v-78h799z" />
    <glyph glyph-name="G" unicode="G" horiz-adv-x="1358" 
d="M608 783l639.001 0.000976562v-783h-505c-69.333 0 -129.333 2.66699 -180 8s-95 14 -133 26c-92 28 -170.333 83.667 -235 167c-83.333 107.333 -125 265.666 -125 474.999c0 300 83.667 501.333 251 604c52 31.333 110 53.333 174 66c32 6 69.5 10.667 112.5 14
s91.5 5 145.5 5h495v-174h-478c-46.667 0 -84.334 -0.666992 -113.001 -2s-56.667 -4.5 -84 -9.5s-59.666 -18.5 -96.999 -40.5c-116 -71.333 -174 -220 -174 -446c0 -88 6 -159.5 18 -214.5s33 -106.167 63 -153.5c38 -58.667 83.667 -98.667 137 -120
c26.667 -10 60.667 -17.667 102 -23s90.666 -8 147.999 -8h260v435h-421v174z" />
    <glyph glyph-name="H" unicode="H" horiz-adv-x="1453" 
d="M1307 1365v-1365h-218v605h-724v-605h-218v1365h218v-586h724v586h218z" />
    <glyph glyph-name="I" unicode="I" 
d="M147 0v1365h218v-1365h-218z" />
    <glyph glyph-name="J" unicode="J" horiz-adv-x="998" 
d="M11 0l0.000976562 173.999h264c47.333 0 87.166 1 119.499 3s60.833 5.66699 85.5 11c45.333 10 80.333 26.833 105 50.5s41.667 59.5 51 107.5s14 122 14 222v797h218v-797c0 -136.667 -8 -235 -24 -295c-22 -75.333 -69 -138.666 -141 -189.999
c-48 -32 -101.833 -53.833 -161.5 -65.5s-148.5 -17.5 -266.5 -17.5h-264z" />
    <glyph glyph-name="K" unicode="K" horiz-adv-x="1339" 
d="M365 1365v-1365h-218v1365h218zM365 695l661 670h266l-692 -658l732 -707h-293z" />
    <glyph glyph-name="L" unicode="L" horiz-adv-x="1012" 
d="M130 1365l217.998 0.000976562v-794c0 -44.667 1 -82.5 3 -113.5s5.66699 -58.833 11 -83.5c10 -45.333 26.667 -81 50 -107c62 -62 160.667 -93 296 -93h293v-174h-336c-105.333 0 -189.666 10 -252.999 30s-118.666 54.667 -165.999 104
c-42 44 -71.833 97.167 -89.5 159.5s-26.5 146.166 -26.5 251.499v820z" />
    <glyph glyph-name="M" unicode="M" horiz-adv-x="1799" 
d="M469 1365l448 -1113l414 1113h322v-1365h-212v1160l-425 -1160h-217l-440 1160v-1160h-212v1365h322z" />
    <glyph glyph-name="N" unicode="N" horiz-adv-x="1462" 
d="M359 1089v-1089h-212v1365h260l696 -1092v1092h212v-1365h-253z" />
    <glyph glyph-name="O" unicode="O" horiz-adv-x="1462" 
d="M740 1385c257.333 0 437.334 -77.666 540.001 -232.999c74.667 -115.333 112 -273 112 -473c0 -246.667 -62.333 -426.334 -187 -539.001c-120 -106.667 -281.667 -160 -485 -160c-233.333 0 -403.333 66.333 -510 199c-42 52 -76 123.833 -102 215.5
s-39 186.834 -39 285.501c0 101.333 13.5 196.666 40.5 285.999s63.833 161 110.5 215c57.333 67.333 128.666 118 213.999 152c41.333 16 88 28.667 140 38s107.333 14 166 14zM738.001 1211c-188 0 -314.333 -65.668 -379 -197.001c-38.667 -80.667 -58 -190.667 -58 -330
c0 -169.333 28.333 -296.333 85 -381c66 -99.333 182.333 -149 349 -149c188 0 313 66.333 375 199c33.333 72.667 50 179.334 50 320.001c0 172.667 -24.667 298 -74 376c-68 108 -184 162 -348 162z" />
    <glyph glyph-name="P" unicode="P" horiz-adv-x="1286" 
d="M365 496v-495.999h-218v1365h603c105.333 0 183.666 -9.33301 234.999 -28c87.333 -30.667 153.333 -85.667 198 -165c36 -64 54 -143 54 -237c0 -154 -47.667 -271.333 -143 -352c-36.667 -30.667 -85.167 -52.834 -145.5 -66.501s-140.166 -20.5 -239.499 -20.5h-344z
M365 670.001h359c102 0 172.667 19.667 212 59c45.333 44 68 114 68 210c0 82.667 -23 148 -69 196c-36 37.333 -109.333 56 -220 56h-350v-521z" />
    <glyph glyph-name="Q" unicode="Q" horiz-adv-x="1473" 
d="M1416 174v-174.001h-394l-223 -1c-114 0 -209 8 -285 24c-152 32 -269.667 121 -353 267c-61.333 108.667 -92 235.334 -92 380.001c0 138.667 25 262.667 75 372c55.333 121.333 143 212.333 263 273c94.667 46.667 206 70 334 70c208 0 369.667 -64 485 -192
c103.333 -116.667 155 -277 155 -481c0 -121.333 -15.667 -222.333 -47 -303s-86 -159 -164 -235h246zM732 1211c-146.667 0 -256.334 -43.667 -329.001 -131c-32 -38 -57 -92.167 -75 -162.5s-27 -147.5 -27 -231.5c0 -156 29.667 -278 89 -366
c32 -48 79.5 -84.833 142.5 -110.5s133.833 -38.5 212.5 -38.5c148.667 0 256.334 54.667 323.001 164c54.667 91.333 82 203.333 82 336c0 155.333 -23.667 275 -71 359c-68 120.667 -183.667 181 -347 181z" />
    <glyph glyph-name="R" unicode="R" horiz-adv-x="1379" 
d="M365 579l0.000976562 -579.001h-218v1365h622c179.333 0 304.666 -24.333 375.999 -73c47.333 -32 84.333 -75.333 111 -130c13.333 -27.333 23.333 -55 30 -83s10 -58.667 10 -92c0 -117.333 -38 -209 -114 -275c-40.667 -34 -97 -61.667 -169 -83
c91.333 -40 154 -88.333 188 -145c18.667 -31.333 33.834 -70.166 45.501 -116.499s17.5 -99.5 17.5 -159.5c0 -27.333 1 -53.5 3 -78.5s4.66699 -47 8 -66s11.666 -40.167 24.999 -63.5h-223c-8 14 -13 28.333 -15 43l-15 154c-12.667 143.333 -52.667 243 -120 299
c-32.667 27.333 -77.667 48 -135 62s-127 21 -209 21h-218zM365.001 752.999h390.001c115.333 0 191.666 13.667 228.999 41c53.333 40 80 99.333 80 178c0 90 -29 153 -87 189c-32 20 -106 30 -222 30h-390v-438z" />
    <glyph glyph-name="S" unicode="S" horiz-adv-x="1304" 
d="M123 0l0.000976562 173.998h590c90.667 0 155.667 11.333 195 34c60 34 90 93 90 177c0 105.333 -39 171 -117 197c-35.333 11.333 -105 17 -209 17h-114c-157.333 0 -270 21.667 -338 65c-97.333 61.333 -146 158.333 -146 291c0 87.333 22 164.333 66 231
s100.833 113.167 170.5 139.5s167.167 39.5 292.5 39.5h562v-174h-562c-58 0 -103 -2.66699 -135 -8s-60 -15.666 -84 -30.999c-52 -33.333 -78 -88.666 -78 -165.999c0 -68 23 -116.667 69 -146s122 -44 228 -44h82c118 0 205.333 -5.16699 262 -15.5
s103.667 -29.833 141 -58.5c42.667 -33.333 77 -79.333 103 -138s39 -122.667 39 -192c0 -160.667 -63 -274 -189 -340c-37.333 -19.333 -81.833 -32.833 -133.5 -40.5s-125.834 -11.5 -222.501 -11.5h-562z" />
    <glyph glyph-name="T" unicode="T" horiz-adv-x="1177" 
d="M479 1191h-472v174h1163v-174h-473v-1191h-218v1191z" />
    <glyph glyph-name="U" unicode="U" horiz-adv-x="1423" 
d="M348 1365l0.00195312 -811c0 -40 1 -74.333 3 -103s5.66699 -54.667 11 -78c9.33301 -44 25.333 -80 48 -108c59.333 -74.667 158.666 -112 297.999 -112c154.667 0 261.667 43.667 321 131c16 24 27.667 56.667 35 98c2.66699 18 5 44 7 78s3 71 3 111v794h218v-794
c0 -120 -6.66699 -207.667 -20 -263c-26 -112 -101 -198.667 -225 -260c-94 -46 -215.667 -69 -365 -69c-134.667 0 -241.334 21.667 -320.001 65c-104 56 -173 142 -207 258c-16.667 58.667 -25 142.667 -25 252v811h218z" />
    <glyph glyph-name="V" unicode="V" horiz-adv-x="1442" 
d="M1434 1365l-582 -1365h-259l-586 1365h252l467 -1161l473 1161h235z" />
    <glyph glyph-name="W" unicode="W" horiz-adv-x="1845" 
d="M265 1365l246 -1143l278 1143h272l274 -1143l250 1143h231l-350 -1365h-275l-269 1110l-282 -1110h-274l-338 1365h237z" />
    <glyph glyph-name="X" unicode="X" horiz-adv-x="1376" 
d="M546 700l-453 665h261l336 -502l377 502h261l-511 -665l549 -700h-265l-422 545l-404 -545h-264z" />
    <glyph glyph-name="Y" unicode="Y" horiz-adv-x="1323" 
d="M552 549l-546 816h253l408 -645l397 645h253l-547 -816v-549h-218v549z" />
    <glyph glyph-name="Z" unicode="Z" horiz-adv-x="1300" 
d="M990 1191h-910v174h1139v-217l-899 -974h899v-174h-1139v217z" />
    <glyph glyph-name="bracketleft" unicode="[" horiz-adv-x="688" 
d="M619 1524l0.00195312 -157.001h-117c-76.667 0 -124.834 -8.83301 -144.501 -26.5s-29.5 -61.834 -29.5 -132.501v-1050c0 -41.333 2 -71 6 -89s11.667 -32.333 23 -43c21.333 -18 69.666 -27 144.999 -27h117v-157h-192c-65.333 0 -113.833 4.16699 -145.5 12.5
s-59.834 24 -84.501 47s-42 52.333 -52 88s-15 86.167 -15 151.5v1084c0 34.667 1 63.834 3 87.501s5.66699 44.834 11 63.501c10 34 27.667 63.667 53 89c23.333 21.333 51.833 36.5 85.5 45.5s81.834 13.5 144.501 13.5h192z" />
    <glyph glyph-name="backslash" unicode="\" horiz-adv-x="980" 
d="M93 1524l965 -1682h-171l-966 1682h172z" />
    <glyph glyph-name="bracketright" unicode="]" horiz-adv-x="688" 
d="M69 1524h192.001c66 0 114.333 -4.33301 145 -13c32.667 -8 61.167 -23.5 85.5 -46.5s41.5 -51.833 51.5 -86.5s15 -85.667 15 -153v-1084c0 -66 -4.83301 -116.5 -14.5 -151.5s-27.5 -64.5 -53.5 -88.5c-23.333 -21.333 -51.5 -36.5 -84.5 -45.5
s-81.167 -13.5 -144.5 -13.5h-192v157h117c77.333 0 125.666 8.83301 144.999 26.5s29 61.834 29 132.501v1050c0 41.333 -2 71.166 -6 89.499s-12 32.5 -24 42.5c-20 18 -68 27 -144 27h-117v157z" />
    <glyph glyph-name="asciicircum" unicode="^" horiz-adv-x="1024" 
d="M257 711h-230l342 661h287l342 -661h-231l-255 487z" />
    <glyph glyph-name="underscore" unicode="_" horiz-adv-x="1024" 
d="M0 -78h1024v-172h-1024v172z" />
    <glyph glyph-name="grave" unicode="`" horiz-adv-x="1024" 
d="M608 1120h-152l-244 259h205z" />
    <glyph glyph-name="a" unicode="a" horiz-adv-x="1140" 
d="M814 608c0 100.667 -12.8301 164.501 -38.4971 191.501s-87.834 40.5 -186.501 40.5h-469v157h512c88 0 155.667 -6.66699 203 -20s85.333 -37.333 114 -72c23.333 -27.333 39.666 -61.333 48.999 -102s14 -98.334 14 -173.001v-630h-504
c-94.667 -0 -158.334 3.33301 -191.001 10c-76 14 -134.167 46.167 -174.5 96.5s-60.5 114.833 -60.5 193.5c0 58 11 109.833 33 155.5s52.667 81.5 92 107.5c48 30 132 45 252 45h355zM814.003 451.001h-331c-56 0 -98.667 -6 -128 -18c-45.333 -20 -68 -63.333 -68 -130
c0 -52.667 14.833 -90.167 44.5 -112.5s80.167 -33.5 151.5 -33.5h331v294z" />
    <glyph glyph-name="b" unicode="b" horiz-adv-x="1137" 
d="M340 997l276.001 -0.000976562c45.333 0 85.666 -2.33301 120.999 -7s65.333 -12 90 -22c80 -33.333 141 -91.666 183 -174.999c37.333 -76 56 -169 56 -279c0 -170 -36.333 -298.667 -109 -386c-40 -47.333 -90.5 -80.5 -151.5 -99.5s-151.167 -28.5 -270.5 -28.5h-393
v1365h198v-368zM340.001 839.999v-683h231c34 0 62.667 1.66699 86 5s45 9.33301 65 18c37.333 15.333 66.333 40.333 87 75c34.667 58 52 139.333 52 244c0 120.667 -21.833 207.667 -65.5 261s-115.167 80 -214.5 80h-241z" />
    <glyph glyph-name="c" unicode="c" horiz-adv-x="963" 
d="M894 997v-156.999h-317c-63.333 0 -113.5 -7.16699 -150.5 -21.5s-67.5 -38.5 -91.5 -72.5c-38.667 -56.667 -58 -139.667 -58 -249c0 -130.667 27.667 -223.667 83 -279c40.667 -40.667 113 -61 217 -61h317v-157h-317c-104 0 -185 9 -243 27
c-94.667 28.667 -166 98.334 -214 209.001c-32 75.333 -48 156.666 -48 243.999c0 161.333 43.667 289.666 131 384.999c44 48 94.167 82 150.5 102s130.833 30 223.5 30h317z" />
    <glyph glyph-name="d" unicode="d" horiz-adv-x="1142" 
d="M802 997l-0.000976562 368h198v-1365h-443c-88.667 0 -158.667 6.66699 -210 20s-95 36 -131 68c-43.333 37.333 -78.166 91.333 -104.499 162s-39.5 147 -39.5 229c0 104.667 19.333 200 58 286c36 81.333 89.333 140.333 160 177s165 55 283 55h229zM801.999 157v683
h-213c-66.667 0 -119.167 -7.5 -157.5 -22.5s-70.5 -41.167 -96.5 -78.5c-38.667 -56.667 -58 -136 -58 -238c0 -126 21 -214.833 63 -266.5s114 -77.5 216 -77.5h246z" />
    <glyph glyph-name="e" unicode="e" horiz-adv-x="973" 
d="M881 590v-157h-598c0 -90.667 23 -160.334 69 -209.001c23.333 -24.667 53 -42 89 -52s87 -15 153 -15h287v-157h-341c-86 0 -152.5 6.5 -199.5 19.5s-89.167 36.5 -126.5 70.5c-94.667 85.333 -142 215 -142 389c0 211.333 72 361 216 449c75.333 46 177.333 69 306 69
h287v-157h-258c-69.333 0 -123 -5.16699 -161 -15.5s-70.667 -29.166 -98 -56.499c-41.333 -40 -68.333 -99.333 -81 -178h598z" />
    <glyph glyph-name="f" unicode="f" horiz-adv-x="755" 
d="M215 840l-176.001 -0.000976562v157h176v44c0 114 25.333 196.667 76 248c25.333 25.333 58.333 44.333 99 57s90.334 19 149.001 19h205v-157h-179c-60 0 -100.333 -10.167 -121 -30.5s-31 -62.166 -31 -125.499v-55h314v-157h-314v-840h-198v840z" />
    <glyph glyph-name="g" unicode="g" horiz-adv-x="1152" 
d="M1011 997l-0.000976562 -883.999c0 -132 -3 -215 -9 -249c-4 -33.333 -18 -64 -42 -92c-28.667 -33.333 -68.667 -56.333 -120 -69c-25.333 -6.66699 -56.5 -11.667 -93.5 -15s-82.5 -5 -136.5 -5h-426v157h456c56.667 0 95.167 2.66699 115.5 8s35.5 17.333 45.5 36
c8 19.333 12 58 12 116h-214c-101.333 0 -170.833 3.16699 -208.5 9.5s-77.5 22.5 -119.5 48.5c-130 76 -195 215.333 -195 418c0 167.333 42.333 298.666 127 393.999c42 48 92.333 81.167 151 99.5s140.334 27.5 245.001 27.5h412zM812.999 840.001l-199.001 0.00292969
c-85.333 0 -144.666 -6.66699 -177.999 -20c-62 -24 -105.333 -78.667 -130 -164c-16.667 -60.667 -25 -120.334 -25 -179.001c0 -100.667 23.333 -181.334 70 -242.001c22 -28.667 49.833 -48.834 83.5 -60.501s82.167 -17.5 145.5 -17.5h233v683z" />
    <glyph glyph-name="h" unicode="h" horiz-adv-x="1152" 
d="M340 1365l-0.00195312 -367.999h231c90.667 0 162.834 -6.66699 216.501 -20s99.167 -36.666 136.5 -69.999c35.333 -31.333 60.833 -73.333 76.5 -126s23.5 -125.334 23.5 -218.001v-563h-198v579c0 103.333 -17.167 172.666 -51.5 207.999s-102.166 53 -203.499 53
h-231v-840h-198v1365h198z" />
    <glyph glyph-name="i" unicode="i" horiz-adv-x="482" 
d="M142 997h198v-997h-198v997zM142 1158v207h198v-207h-198z" />
    <glyph glyph-name="j" unicode="j" horiz-adv-x="544" 
d="M403 997v-931.999c0 -138 -6.66699 -225 -20 -261c-18 -52.667 -51.5 -89.834 -100.5 -111.501s-124.167 -32.5 -225.5 -32.5h-124v157h124c66.667 0 108 10.167 124 30.5s24 74.5 24 162.5v987h198zM205 1158v207h198v-207h-198z" />
    <glyph glyph-name="k" unicode="k" horiz-adv-x="1105" 
d="M340 1365v-761l473 393h253l-490 -393h101c122.667 0 209 -25 259 -75s75 -136.333 75 -259v-270h-198v230c0 27.333 -1 51.5 -3 72.5s-5.33301 38.833 -10 53.5c-8 26 -22.5 47.167 -43.5 63.5s-47.5 27.5 -79.5 33.5c-15.333 2.66699 -34.5 4.66699 -57.5 6
s-53.5 2 -91.5 2h-188v-461h-198v1365h198z" />
    <glyph glyph-name="l" unicode="l" horiz-adv-x="482" 
d="M340 0h-198v1365h198v-1365z" />
    <glyph glyph-name="m" unicode="m" horiz-adv-x="1612" 
d="M142 997h881c60.667 0 111 -1 151 -3s71.333 -5.33301 94 -10c41.333 -8 80.5 -27.333 117.5 -58s62.833 -69 77.5 -115s22 -111 22 -195v-616h-198v616c0 82.667 -16.833 140.667 -50.5 174s-92.5 50 -176.5 50h-154v-840h-198v840h-368v-840h-198v997z" />
    <glyph glyph-name="n" unicode="n" horiz-adv-x="1134" 
d="M142 997l460.999 0.00292969c88 0 157.833 -9.33301 209.5 -28s93.834 -50.334 126.501 -95.001c22 -28.667 38.667 -65.834 50 -111.501s17 -101.834 17 -168.501v-594h-198v573c0 100 -17.167 169.5 -51.5 208.5s-95.833 58.5 -184.5 58.5h-232v-840h-198v997z" />
    <glyph glyph-name="o" unicode="o" horiz-adv-x="1162" 
d="M592 1008c159.333 0 283.667 -46 373 -138c83.333 -86.667 125 -212 125 -376c0 -153.333 -42.333 -274.666 -127 -363.999c-90 -94 -217.333 -141 -382 -141c-172.667 0 -304 48 -394 144c-76.667 82 -115 198 -115 348c0 157.333 43 284.666 129 381.999
c42.667 47.333 96.5 83.333 161.5 108s141.5 37 229.5 37zM580.001 844c-97.333 0 -172.167 -30.168 -224.5 -90.501s-78.5 -146.833 -78.5 -259.5c0 -106.667 21.333 -186.667 64 -240c54 -67.333 132.333 -101 235 -101c206 0 309 112 309 336
c0 114 -26.333 201.333 -79 262c-26 30.667 -57.833 53.834 -95.5 69.501s-81.167 23.5 -130.5 23.5z" />
    <glyph glyph-name="p" unicode="p" horiz-adv-x="1116" 
d="M142 997l410.999 -0.000976562c104.667 0 182.167 -8.16699 232.5 -24.5s97.5 -48.166 141.5 -95.499c78.667 -86.667 118 -212.667 118 -378c0 -86 -13.333 -165.5 -40 -238.5s-63.667 -130.5 -111 -172.5c-37.333 -34 -80.666 -57.167 -129.999 -69.5
s-127 -18.5 -233 -18.5h-191v-317h-198v1314zM339.999 839.999l0.00195312 -682.999h191c111.333 0 188.666 22 231.999 66c51.333 53.333 77 149.666 77 288.999c0 116.667 -23.833 200.5 -71.5 251.5s-126.834 76.5 -237.501 76.5h-191z" />
    <glyph glyph-name="q" unicode="q" horiz-adv-x="1121" 
d="M979 997l-0.000976562 -1314h-198v317h-214c-105.333 -0 -178.166 3.83301 -218.499 11.5s-78.5 24.5 -114.5 50.5c-108 78 -162 220 -162 426c0 207.333 57 351 171 431c75.333 52 192 78 350 78h386zM780.999 840h-201c-34 0 -63 -1.66699 -87 -5
s-46.333 -9.33301 -67 -18c-38 -14.667 -69 -39.667 -93 -75c-37.333 -54.667 -56 -140 -56 -256c0 -115.333 22.833 -199 68.5 -251s119.5 -78 221.5 -78h214v683z" />
    <glyph glyph-name="r" unicode="r" horiz-adv-x="824" 
d="M142 997h255.999c40.667 0 76.834 -1.33301 108.501 -4s59.167 -7 82.5 -13c45.333 -11.333 83.333 -30.666 114 -57.999s52 -61.333 64 -102s18 -99.334 18 -176.001v-97h-187v97c0 72.667 -12.333 122 -37 148s-72 39 -142 39h-79v-831h-198v997z" />
    <glyph glyph-name="s" unicode="s" horiz-adv-x="1078" 
d="M954 997l-0.00292969 -157.003h-449c-33.333 0 -61.166 -0.333008 -83.499 -1s-39.166 -2 -50.499 -4c-20.667 -2 -36.667 -9.66699 -48 -23c-23.333 -23.333 -35 -61 -35 -113c0 -49.333 12.5 -81.833 37.5 -97.5s78.5 -23.5 160.5 -23.5h135c50 0 93 -0.666992 129 -2
s60.667 -2.66602 74 -3.99902c12 0 24 -2.16699 36 -6.5s24 -10.5 36 -18.5c66.667 -41.333 100 -124.333 100 -249c0 -136 -42.667 -225.667 -128 -269c-23.333 -12 -50.666 -20 -81.999 -24c-34.667 -3.33301 -89.667 -5 -165 -5h-527v157h479
c92.667 0 149 4.33301 169 13c32.667 14 49 51.333 49 112c0 64 -20.333 101 -61 111c-18.667 4.66699 -66.667 7 -144 7h-81c-105.333 0 -177.333 3 -216 9s-72 21 -100 45c-70.667 56.667 -106 139.334 -106 248.001c0 58.667 11.5 110.334 34.5 155.001
s55.167 78 96.5 100c51.333 26.667 131 40 239 40h501z" />
    <glyph glyph-name="t" unicode="t" horiz-adv-x="770" 
d="M225 997l-0.00195312 367.999h198v-368h291v-157h-291v-524c0 -41.333 2 -71.166 6 -89.499s12 -32.5 24 -42.5c20 -18 68 -27 144 -27h117v-157h-192c-64 0 -112.167 4 -144.5 12s-60.666 23.667 -84.999 47s-41.666 52.833 -51.999 88.5s-15.5 86.167 -15.5 151.5v541
h-190v157h190z" />
    <glyph glyph-name="u" unicode="u" horiz-adv-x="1130" 
d="M791 157v840h198v-997h-435c-67.333 0 -117.833 2 -151.5 6s-65.5 12.667 -95.5 26c-64 26 -109.833 68.167 -137.5 126.5s-41.5 141.5 -41.5 249.5v589h198v-582c0 -87.333 9.66699 -147.333 29 -180c31.333 -52 103.333 -78 216 -78h220z" />
    <glyph glyph-name="v" unicode="v" horiz-adv-x="1084" 
d="M535 257l326 740h208l-461 -997h-159l-435 997h216z" />
    <glyph glyph-name="w" unicode="w" horiz-adv-x="1613" 
d="M707 157l-0.00195312 839.999h198v-840h368v840h198v-997h-928c-105.333 0 -179.666 8 -222.999 24c-65.333 24.667 -113.666 64.334 -144.999 119.001s-47 127 -47 217l1 88v549h198v-572c0 -70.667 1.33301 -117.5 4 -140.5s10 -43.167 22 -60.5
c14 -24 35.667 -41.167 65 -51.5s71 -15.5 125 -15.5h164z" />
    <glyph glyph-name="x" unicode="x" horiz-adv-x="1053" 
d="M403 504l-388 493h241l272 -366l274 366h234l-386 -493l397 -504h-240l-279 372l-288 -372h-234z" />
    <glyph glyph-name="y" unicode="y" horiz-adv-x="1130" 
d="M790 157l0.00292969 840h198v-833c0 -109.333 -2.83301 -188.5 -8.5 -237.5s-16.5 -87.5 -32.5 -115.5c-28 -50 -68 -83.833 -120 -101.5s-138.667 -26.5 -260 -26.5h-439v157h428h26h20h17h13c32 0 53 1.66699 63 5c20.667 2 38.667 10.667 54 26
c27.333 24 41 67 41 129h-274c-34.667 0 -62.834 0.666992 -84.501 2s-41.834 4 -60.501 8c-32.667 6 -66.334 19.667 -101.001 41c-58 34 -96.167 76.5 -114.5 127.5s-27.5 141.167 -27.5 270.5v548h198v-603c0 -42 1.66699 -73.5 5 -94.5s7.33301 -37.167 12 -48.5
c2.66699 -6.66699 6.66699 -14 12 -22c14.667 -25.333 36.667 -44 66 -56c30 -10.667 70 -16 120 -16h249z" />
    <glyph glyph-name="z" unicode="z" horiz-adv-x="990" 
d="M725 840h-659v157h845v-216l-665 -624h665v-157h-845v215z" />
    <glyph glyph-name="braceleft" unicode="{" horiz-adv-x="742" 
d="M260 683c46 -28.667 78.001 -61.333 96.001 -98s27 -88.667 27 -156v-236c0 -61.333 1 -99.666 3 -114.999s7.33301 -28.666 16 -39.999c20.667 -26 62.667 -39 126 -39h145v-157h-157c-75.333 0 -131.333 5.16699 -168 15.5s-69.334 30.166 -98.001 59.499
c-43.333 45.333 -65 126 -65 242v259c0 64 -8.83301 108.833 -26.5 134.5s-53.167 44.5 -106.5 56.5v148c52 11.333 87.167 30 105.5 56s27.5 71 27.5 135v259c0 124 25.667 208.667 77 254c27.333 23.333 59.5 39.666 96.5 48.999s89.5 14 157.5 14h157v-157h-145
c-68.667 0 -112.334 -15.667 -131.001 -47c-4 -9.33301 -7.33301 -26.5 -10 -51.5s-4 -56.833 -4 -95.5v-236c0 -65.333 -8.66699 -116.5 -26 -153.5s-49.666 -70.5 -96.999 -100.5z" />
    <glyph glyph-name="bar" unicode="|" horiz-adv-x="1024" 
d="M403 1365h218v-1706h-218v1706z" />
    <glyph glyph-name="braceright" unicode="}" horiz-adv-x="742" 
d="M482 683c-45.333 28.667 -77.166 61.4971 -95.499 98.4971s-27.5 88.833 -27.5 155.5v236v22v18v14c0 31.333 -1.33301 52 -4 62c0 6.66699 -1.33301 13.334 -4 20.001s-6.33398 13 -11.001 19c-20.667 26 -63 39 -127 39h-145v157h157
c75.333 0 131.833 -5.16699 169.5 -15.5s70.167 -30.166 97.5 -59.499c43.333 -45.333 65 -126 65 -242v-259c0 -64 8.83301 -108.833 26.5 -134.5s52.834 -44.5 105.501 -56.5v-148c-52.667 -11.333 -87.834 -30 -105.501 -56s-26.5 -71 -26.5 -135v-259
c0 -62 -6.16699 -113.833 -18.5 -155.5s-31.833 -74.167 -58.5 -97.5s-58.667 -39.833 -96 -49.5s-90.333 -14.5 -159 -14.5h-157v157h145c70 0 114 16 132 48c4 9.33301 7.33301 26.333 10 51s4 56.334 4 95.001v236c0 34 2 63.5 6 88.5s10.667 47.167 20 66.5
c18 36 50.333 69 97 99z" />
    <glyph glyph-name="asciitilde" unicode="~" horiz-adv-x="1365" 
d="M309 1165l-121.997 80c33.333 72 58 119.667 74 143c57.333 82 132 123 224 123c48 0 121 -20 219 -60l121 -47c21.333 -6 43.666 -9 66.999 -9c34 0 62.167 8.16699 84.5 24.5s47.5 47.833 75.5 94.5l127 -73c-46 -93.333 -91.333 -158 -136 -194
c-54.667 -41.333 -115 -62 -181 -62c-40 0 -137.667 30.667 -293 92c-38.667 15.333 -72.334 23 -101.001 23c-32.667 0 -61 -10 -85 -30c-20.667 -18 -45.334 -53 -74.001 -105z" />
    <glyph glyph-name="nonbreakingspace" unicode="&#xa0;" 
 />
    <glyph glyph-name="exclamdown" unicode="&#xa1;" horiz-adv-x="489" 
d="M347 0h-205v1049h205v-1049zM347 1143h-205v222h205v-222z" />
    <glyph glyph-name="cent" unicode="&#xa2;" horiz-adv-x="971" 
d="M691 959v-648h200v-174h-200v-201h-123v201c-84 0 -150.333 5.33301 -199 16s-90.667 29 -126 55c-52.667 37.333 -95 93.333 -127 168c-15.333 36 -27 74 -35 114s-12 82.333 -12 127c0 158.667 42.167 284.5 126.5 377.5s198.5 139.5 342.5 139.5l30 -1v194h123v-194
h200v-174h-200zM568 959c-37.333 0 -70.5 -3.83105 -99.5 -11.498s-52.833 -18.834 -71.5 -33.501c-64 -51.333 -96 -145.333 -96 -282c0 -68.667 9.16699 -127.834 27.5 -177.501s45.833 -86 82.5 -109s89 -34.5 157 -34.5v648z" />
    <glyph glyph-name="sterling" unicode="&#xa3;" horiz-adv-x="1279" 
d="M1112 1365v-174.001h-293c-68 0 -126 -7.5 -174 -22.5s-88.333 -38.5 -121 -70.5c-22 -25.333 -38.167 -61.166 -48.5 -107.499s-15.5 -111.5 -15.5 -195.5v-91h447v-137h-447v-393h762v-174h-1109v174h129v393h-129v137h129v117c0 111.333 10 199 30 263
s54.667 118.667 104 164c46 42 99.167 72 159.5 90s140.5 27 240.5 27h336z" />
    <glyph glyph-name="currency" unicode="&#xa4;" horiz-adv-x="1239" 
d="M311 267l-144 -143.001l-122 122l147 147c-54 91.333 -81 192.333 -81 303c0 112 27.333 214.333 82 307l-148 148l122 122l146 -146c42 26 88.333 45.667 139 59s106.667 20 168 20c121.333 0 223.333 -26.333 306 -79l146 146l122 -122l-148 -148
c55.333 -93.333 83 -195.666 83 -306.999c0 -110 -27 -211 -81 -303l146 -147l-122 -122l-143 143c-83.333 -53.333 -186.333 -80 -309 -80c-124 0 -227 26.667 -309 80zM620 1042c-94.667 0 -168.331 -29.667 -220.998 -89c-55.333 -62.667 -83 -148 -83 -256
s27.667 -193.667 83 -257c51.333 -59.333 123.333 -89 216 -89c99.333 0 174.666 29.667 225.999 89c55.333 62.667 83 148.667 83 258c0 108 -27.667 193 -83 255c-25.333 29.333 -56.333 51.5 -93 66.5s-79.334 22.5 -128.001 22.5z" />
    <glyph glyph-name="yen" unicode="&#xa5;" horiz-adv-x="1216" 
d="M458 617l-451 748h240l367 -644l356 644h239l-451 -748h308v-130h-349v-116h309v-130h-309v-241h-218v241h-309v130h309v116h-350v130h309z" />
    <glyph glyph-name="brokenbar" unicode="&#xa6;" horiz-adv-x="1024" 
d="M403 1365h218v-698h-218v698zM403 314h218v-655h-218v655z" />
    <glyph glyph-name="section" unicode="&#xa7;" horiz-adv-x="1204" 
d="M1018 274c65.333 -66.667 98 -147.669 98 -243.002c0 -78 -21.333 -146.667 -64 -206c-49.333 -68 -122.333 -111.667 -219 -131c-42.667 -7.33301 -110.667 -11 -204 -11h-510v174h525c45.333 0 82.833 2.66699 112.5 8s54.5 14.333 74.5 27
c50.667 32.667 76 79.334 76 140.001c0 75.333 -35.333 126 -106 152c-30.667 10.667 -88 16 -172 16h-118c-140 0 -241.667 19 -305 57c-40 25.333 -71.833 60.333 -95.5 105s-35.5 93.334 -35.5 146.001c0 94.667 38.333 181.667 115 261
c-36.667 44 -63.334 85 -80.001 123c-14.667 38 -22 78 -22 120c0 70 20.333 135.333 61 196c52.667 78.667 130.334 127.334 233.001 146.001c18.667 3.33301 43.5 6 74.5 8s67.167 3 108.5 3h505v-174h-505c-81.333 0 -140 -8 -176 -24c-28 -12 -50.333 -32.667 -67 -62
s-25 -60.333 -25 -93c0 -58 20.667 -99.667 62 -125s110 -38 206 -38h79c68 0 125.5 -2 172.5 -6s86.167 -10.667 117.5 -20c72 -20 124.333 -62.667 157 -128c25.333 -48.667 38 -104.334 38 -167.001c0 -100 -37 -184.667 -111 -254zM565 373.998l64 0.000976562
c100 0 167.667 7 203 21c54.667 22 82 65.667 82 131c0 70 -32.333 115 -97 135c-31.333 9.33301 -94 14 -188 14h-78c-85.333 0 -144 -5.66699 -176 -17c-27.333 -9.33301 -49.333 -26.833 -66 -52.5s-25 -54.167 -25 -85.5c0 -60.667 24.333 -101.334 73 -122.001
c40 -16 109.333 -24 208 -24z" />
    <glyph glyph-name="dieresis" unicode="&#xa8;" horiz-adv-x="1024" 
d="M796 1345v-212h-193v212h193zM421 1345v-212h-193v212h193z" />
    <glyph glyph-name="copyright" unicode="&#xa9;" horiz-adv-x="1557" 
d="M787 1385c126 0 246 -34.3311 360 -102.998s202 -162 264 -280c51.333 -100.667 77 -207.334 77 -320.001c0 -192.667 -69.5 -357.834 -208.5 -495.501s-306.167 -206.5 -501.5 -206.5s-362.5 68.667 -501.5 206s-208.5 302.333 -208.5 495
c0 134 34.5 256.833 103.5 368.5s164.167 198.167 285.5 259.5c101.333 50.667 211.333 76 330 76zM785 1259c-163.333 0 -302 -56 -416 -168s-171 -248.333 -171 -409c0 -158.667 56.833 -294.334 170.5 -407.001s250.167 -169 409.5 -169c160 0 296.667 56.167 410 168.5
s170 248.5 170 408.5c0 108 -28 207.833 -84 299.5s-133 162.834 -231 213.501c-38 20 -79 35.5 -123 46.5s-89 16.5 -135 16.5zM1085 419.002v-114h-263c-138 0 -237 26 -297 78c-76.667 66.667 -115 162.667 -115 288c0 86 20.333 162.333 61 229
c33.333 54 75.5 92 126.5 114s123.5 33 217.5 33h270v-114h-263c-55.333 0 -95.333 -3.66699 -120 -11c-26.667 -6 -48.667 -18.667 -66 -38c-44 -46 -66 -118 -66 -216c0 -86 22.333 -151.333 67 -196c20 -20 44 -34 72 -42c12.667 -3.33301 29.5 -6 50.5 -8
s45.5 -3 73.5 -3h252z" />
    <glyph glyph-name="ordfeminine" unicode="&#xaa;" horiz-adv-x="759" 
d="M527 919c0 54 -7.16895 88.001 -21.502 102.001s-52.166 21 -113.499 21h-302v106h329c96.667 0 161.834 -15.167 195.501 -45.5s50.5 -89.5 50.5 -177.5v-379h-324c-61.333 0 -104.833 2.16699 -130.5 6.5s-49.5 14.166 -71.5 29.499c-48.667 32.667 -73 82 -73 148
c0 76 27.333 130 82 162c31.333 18 85.333 27 162 27h217zM526.998 813.001h-202c-44 0 -74.333 -5.33301 -91 -16s-25 -31.667 -25 -63c0 -30 8.5 -51.167 25.5 -63.5s47.167 -18.5 90.5 -18.5h202v161z" />
    <glyph glyph-name="guillemotleft" unicode="&#xab;" horiz-adv-x="1084" 
d="M473 847v-222l-100 -129l100 -123v-222l-227 259v172zM801 847v-222l-100 -129l100 -123v-222l-227 259v172z" />
    <glyph glyph-name="logicalnot" unicode="&#xac;" horiz-adv-x="1024" 
d="M737 0v342h-669v204h887v-546h-218z" />
    <glyph glyph-name="uni00AD" unicode="&#xad;" horiz-adv-x="683" 
d="M683 625v-157h-683v157h683z" />
    <glyph glyph-name="registered" unicode="&#xae;" horiz-adv-x="1557" 
d="M787 1385c126 0 246 -34.332 360 -102.999s202 -162 264 -280c51.333 -100.667 77 -207.334 77 -320.001c0 -194 -69.333 -359.5 -208 -496.5s-306 -205.5 -502 -205.5c-134 0 -257.5 34.333 -370.5 103s-200.167 162 -261.5 280c-52 100 -78 206 -78 318
c0 132.667 35 256 105 370c68 110.667 162.667 196.667 284 258c101.333 50.667 211.333 76 330 76zM786 1259c-163.333 0 -302 -56.001 -416 -168.001s-171 -248.333 -171 -409c0 -158 56.833 -293.5 170.5 -406.5s250.167 -169.5 409.5 -169.5
c160 0 296.667 56.167 410 168.5s170 248.5 170 408.5c0 108 -28 207.833 -84 299.5s-133 162.834 -231 213.501c-39.333 20 -80.5 35.5 -123.5 46.5s-87.833 16.5 -134.5 16.5zM605 610l-0.00195312 -305h-152v742h380c108 0 184.333 -13.333 229 -40
c63.333 -38 95 -95 95 -171c0 -47.333 -11.167 -85.666 -33.5 -114.999s-59.166 -54.333 -110.499 -75c42.667 -20.667 73 -47 91 -79c10 -17.333 18.167 -37.333 24.5 -60s9.5 -49.334 9.5 -80.001c0 -23.333 0.666992 -41.166 2 -53.499s3.5 -23.333 6.5 -33
s10.5 -21.5 22.5 -35.5h-160c-5.33301 9.33301 -9.66602 18.666 -12.999 27.999l-9 86c-7.33301 72.667 -29.833 122.667 -67.5 150s-103.167 41 -196.5 41h-118zM604.998 724h220c66.667 0 109.667 6.66699 129 20c28.667 19.333 43 48 43 86c0 41.333 -15.333 71 -46 89
c-18.667 9.33301 -60.667 14 -126 14h-220v-209z" />
    <glyph glyph-name="glyph137" unicode="&#xaf;" horiz-adv-x="1024" 
d="M0 1615h1024v-172h-1024v172z" />
    <glyph glyph-name="degree" unicode="&#xb0;" horiz-adv-x="775" 
d="M387 1376c84 0 155.833 -29 215.5 -87s89.5 -128.333 89.5 -211c0 -82 -29.833 -152.5 -89.5 -211.5s-131.167 -88.5 -214.5 -88.5c-84.667 0 -156.667 29.5 -216 88.5s-89 130.5 -89 214.5c0 82.667 29.667 151.667 89 207c62 58.667 133.667 88 215 88zM388 1235
c-44 0 -82.001 -15.167 -114.001 -45.5s-48 -66.833 -48 -109.5c0 -44.667 15.833 -82.5 47.5 -113.5s69.834 -46.5 114.501 -46.5c44 0 81.833 15.5 113.5 46.5s47.5 68.167 47.5 111.5c0 42.667 -15.667 79.5 -47 110.5s-69.333 46.5 -114 46.5z" />
    <glyph glyph-name="plusminus" unicode="&#xb1;" horiz-adv-x="1126" 
d="M68 891h406v383h177v-383h407v-173h-407v-374h-177v374h-406v173zM68 273h990v-173h-990v173z" />
    <glyph glyph-name="twosuperior" unicode="&#xb2;" horiz-adv-x="961" 
d="M279 662h571.999v-116h-723v223c0 58 4.66699 100.5 14 127.5s27.333 51.5 54 73.5c23.333 19.333 54.5 34 93.5 44s86.167 15 141.5 15h56c72.667 0 121.334 6.33301 146.001 19c38 20 57 53 57 99c0 39.333 -16 68 -48 86c-22.667 10.667 -68.667 16 -138 16h-368v116
h384c82.667 0 138.667 -3.33301 168 -10c32 -6 61 -20.667 87 -44c50 -42 75 -98 75 -168c0 -88 -41 -153.667 -123 -197c-42 -22 -111 -33 -207 -33h-78c-62.667 0 -105.5 -9.33301 -128.5 -28s-34.5 -53 -34.5 -103v-120z" />
    <glyph glyph-name="threesuperior" unicode="&#xb3;" horiz-adv-x="961" 
d="M130 546l-0.000976562 115.998h356c64 0 110.333 9.33301 139 28s43 48.667 43 90c0 46.667 -15.333 79.834 -46 99.501s-82 29.5 -154 29.5h-253v116h271c70.667 0 117.667 7.66699 141 23c32.667 21.333 49 52.333 49 93c0 38.667 -13.5 66.334 -40.5 83.001
s-72.5 25 -136.5 25h-369v116h381c102.667 0 175 -11 217 -33c69.333 -36 104 -97 104 -183c0 -83.333 -46.333 -144 -139 -182c91.333 -28 137 -91.667 137 -191c0 -88 -39.667 -153.333 -119 -196c-26 -13.333 -54.667 -22.333 -86 -27
c-15.333 -2 -35.166 -3.66699 -59.499 -5s-53.833 -2 -88.5 -2h-347z" />
    <glyph glyph-name="acute" unicode="&#xb4;" horiz-adv-x="1024" 
d="M416 1120l191 259h205l-244 -259h-152z" />
    <glyph glyph-name="mu" unicode="&#xb5;" horiz-adv-x="1145" 
d="M142 997h198v-582c0 -87.333 9.66699 -147.333 29 -180c31.333 -52 103.333 -78 216 -78h220v840h198v-997h-435c-121.333 -0 -197.333 8.33301 -228 25v-342h-198v1314z" />
    <glyph glyph-name="paragraph" unicode="&#xb6;" horiz-adv-x="1145" 
d="M478 496c-51.333 0 -97.5 5.66699 -138.5 17s-78.167 27.333 -111.5 48c-119.333 73.333 -179 198.333 -179 375c0 179.333 66 305 198 377c34 17.333 73.167 30.333 117.5 39s101.5 13 171.5 13h595v-174h-144v-1508h-181v1508h-202c-110 0 -183.667 -11.333 -221 -34
c-68 -40 -102 -111.667 -102 -215c0 -94.667 28 -163.667 84 -207s143.667 -65 263 -65h24v-987h-174v813z" />
    <glyph glyph-name="cedilla" unicode="&#xb8;" horiz-adv-x="1024" 
d="M423 0h97v-82h15h4c23.333 0 43 -2.5 59 -7.5s31 -13.833 45 -26.5c26 -24 39 -58.333 39 -103c0 -52 -16.833 -90.333 -50.5 -115s-85.5 -37 -155.5 -37h-105v88h99c62 0 93 19.667 93 59c0 36 -31 54 -93 54h-47v170z" />
    <glyph glyph-name="onesuperior" unicode="&#xb9;" horiz-adv-x="961" 
d="M556 546h-151v819h151v-819z" />
    <glyph glyph-name="ordmasculine" unicode="&#xba;" horiz-adv-x="773" 
d="M395 1154c102.667 0 182.001 -27.666 238.001 -82.999c54 -52 81 -127.333 81 -226c0 -96 -28.833 -170.833 -86.5 -224.5s-137.834 -80.5 -240.501 -80.5c-109.333 0 -194 29 -254 87c-49.333 48 -74 118.333 -74 211c0 24.667 2.33301 49.167 7 73.5
s12 48.166 22 71.499c20 46.667 46.333 82.667 79 108c54 42 130 63 228 63zM386.001 1044c-58.667 0 -104 -17.333 -136 -52s-48 -84 -48 -148c0 -129.333 60.333 -194 181 -194c125.333 0 188 63.667 188 191c0 135.333 -61.667 203 -185 203z" />
    <glyph glyph-name="guillemotright" unicode="&#xbb;" horiz-adv-x="1084" 
d="M283 847l227 -265v-172l-227 -259v222l100 123l-100 129v222zM611 847l227 -265v-172l-227 -259v222l100 123l-100 129v222z" />
    <glyph glyph-name="onequarter" unicode="&#xbc;" horiz-adv-x="2171" 
d="M638 546h-151v819h151v-819zM1453 1393h146l-870 -1420h-146zM1270 188v118l503 513h220v-515h127v-116h-127v-188h-151v188h-572zM1437 304h405v413z" />
    <glyph glyph-name="onehalf" unicode="&#xbd;" horiz-adv-x="2172" 
d="M734 546h-151v819h151v-819zM1454 1393h146l-871 -1420h-146zM1545 116h571.999v-116h-723v223c0 30 1 55 3 75s5.66699 37.333 11 52c8.66699 28 25.667 52.167 51 72.5s57.5 35.5 96.5 45.5s86.167 15 141.5 15h56c72.667 0 121.334 6.33301 146.001 19
c38 20 57 53 57 99c0 39.333 -16 68 -48 86c-22.667 10.667 -68.667 16 -138 16h-369v116h385c82.667 0 138.667 -3.33301 168 -10c32 -6 61 -20.667 87 -44c50 -42 75 -98 75 -168c0 -88.667 -41 -154.667 -123 -198c-42.667 -21.333 -111.667 -32 -207 -32h-78
c-62.667 0 -105.5 -9.33301 -128.5 -28s-34.5 -53 -34.5 -103v-120z" />
    <glyph glyph-name="threequarters" unicode="&#xbe;" horiz-adv-x="2171" 
d="M109 546v115.996h356c64 0 110.333 9.33301 139 28s43 48.667 43 90c0 46.667 -15.333 79.834 -46 99.501s-82 29.5 -154 29.5h-253v116h271c70.667 0 117.667 7.66699 141 23c32.667 21.333 49 52.333 49 93c0 38.667 -13.5 66.334 -40.5 83.001s-72.5 25 -136.5 25
h-369v116h381c103.333 0 175.666 -11 216.999 -33c69.333 -37.333 104 -98.333 104 -183c0 -43.333 -10.667 -79.166 -32 -107.499s-57 -53.5 -107 -75.5c91.333 -27.333 137 -90.666 137 -189.999c0 -88 -39.667 -153.333 -119 -196c-26 -13.333 -54.667 -22.333 -86 -27
c-15.333 -2 -35.166 -3.66699 -59.499 -5s-53.833 -2 -88.5 -2h-347zM1453 1393h146l-871 -1420h-146zM1181 187.996v118l503 513h220v-515h126v-116h-126v-188h-151v188h-572zM1348 303.996h405v413z" />
    <glyph glyph-name="questiondown" unicode="&#xbf;" horiz-adv-x="1154" 
d="M1027 0l-565.002 0.000976562c-74 0 -134 6 -180 18s-86.333 32.333 -121 61c-74.667 62.667 -112 152 -112 268c0 66.667 13.833 127.5 41.5 182.5s65.5 97.833 113.5 128.5c34 21.333 74.5 36.5 121.5 45.5s109.167 13.5 186.5 13.5h96c98 0 159.333 12.333 184 37
c12 11.333 20 28.166 24 50.499s6 61.5 6 117.5v127h205v-144c0 -47.333 -1 -86.5 -3 -117.5s-5.66699 -56.5 -11 -76.5c-8 -38.667 -25.667 -71.5 -53 -98.5s-63.666 -45.333 -108.999 -55s-116.666 -14.5 -213.999 -14.5h-125c-154 0 -231 -63.667 -231 -191
c0 -72 22.667 -121.667 68 -149c33.333 -19.333 94 -29 182 -29h496v-174zM821.998 1143v222h205v-222h-205z" />
    <glyph glyph-name="Agrave" unicode="&#xc0;" horiz-adv-x="1411" 
d="M8 0l565 1365h287l543 -1365h-232l-139 357h-647l-145 -357h-232zM713 1202l-262 -671h511zM814 1481h-153l-257 246h219z" />
    <glyph glyph-name="Aacute" unicode="&#xc1;" horiz-adv-x="1411" 
d="M8 0l565 1365h287l543 -1365h-232l-139 357h-647l-145 -357h-232zM713 1202l-262 -671h511zM620 1481l191 246h219l-258 -246h-152z" />
    <glyph glyph-name="Acircumflex" unicode="&#xc2;" horiz-adv-x="1411" 
d="M8 0l565 1365h287l543 -1365h-232l-139 357h-647l-145 -357h-232zM713 1202l-262 -671h511zM716 1629l-144 -148h-177l229 246h184l229 -246h-178z" />
    <glyph glyph-name="Atilde" unicode="&#xc3;" horiz-adv-x="1411" 
d="M8 0l565 1365h287l543 -1365h-232l-139 357h-647l-145 -357h-232zM713 1202l-262 -671h511zM1051 1706c-10 -71.333 -30.5 -125.5 -61.5 -162.5s-71.833 -55.5 -122.5 -55.5c-41.333 0 -99.666 17.667 -174.999 53c-46 21.333 -82 32 -108 32
c-46.667 0 -75.667 -27 -87 -81h-115c20 145.333 84 218 192 218c20 0 42.167 -3.33301 66.5 -10s53.5 -18 87.5 -34l80 -35c13.333 -4 28.666 -6 45.999 -6c42.667 0 70 27 82 81h115z" />
    <glyph glyph-name="Adieresis" unicode="&#xc4;" horiz-adv-x="1411" 
d="M8 0l565 1365h287l543 -1365h-232l-139 357h-647l-145 -357h-232zM713 1202l-262 -671h511zM1010 1700v-212h-196v212h196zM619 1700v-212h-196v212h196z" />
    <glyph glyph-name="Aring" unicode="&#xc5;" horiz-adv-x="1411" 
d="M8 0l565 1365h287l543 -1365h-232l-139 357h-647l-145 -357h-232zM713 1202l-262 -671h511zM720 1840c53.333 0 100 -21.333 140 -64c33.333 -36.667 50 -79.667 50 -129c0 -56.667 -21.333 -104.334 -64 -143.001c-37.333 -33.333 -80.333 -50 -129 -50
c-57.333 0 -105.333 21.333 -144 64c-33.333 36.667 -50 80.334 -50 131.001c0 55.333 21.333 102.333 64 141c36.667 33.333 81 50 133 50zM718 1737c-26.667 0 -48.667 -8.66895 -66 -26.002s-26 -38.333 -26 -63c0 -25.333 8.66699 -47 26 -65
c18.667 -17.333 40 -26 64 -26c25.333 0 46.833 8.83301 64.5 26.5s26.5 38.834 26.5 63.501s-8.5 45.834 -25.5 63.501s-38.167 26.5 -63.5 26.5z" />
    <glyph glyph-name="AE" unicode="&#xc6;" horiz-adv-x="2106" 
d="M1171 0l-139 357h-647l-145 -357h-232l565 1365h287l155 -388c48 139.333 118.5 238.833 211.5 298.5s226.5 89.5 400.5 89.5h385v-174h-398c-90 0 -158.667 -8.66699 -206 -26s-88.333 -48.666 -123 -93.999c-25.333 -32.667 -47 -75.334 -65 -128.001
c-7.33301 -23.333 -13.333 -47.833 -18 -73.5s-7 -49.167 -7 -70.5l1 -24h816v-174h-808c14 -154 52.667 -263.667 116 -329s162.333 -98 297 -98h395v-174h-841zM713 1202l-262 -671h512z" />
    <glyph glyph-name="Ccedilla" unicode="&#xc7;" horiz-adv-x="1239" 
d="M1169 174l-0.000976562 -174.001h-360v-89h16c10.667 0.666992 25.334 -0.333008 44.001 -3c19.333 -4 33.333 -8.33301 42 -13c45.333 -22 68 -65 68 -129c0 -54.667 -17.167 -95 -51.5 -121s-88.833 -39 -163.5 -39h-109v95h103c64.667 0 97 19.667 97 59
c0 37.333 -32.333 56 -97 56h-49v185c-36.667 0 -69.5 0.833008 -98.5 2.5s-64.5 6.16699 -106.5 13.5s-85 22 -129 44c-113.333 54 -197.666 154 -252.999 300c-35.333 94.667 -53 198.667 -53 312c0 158.667 33 299 99 421c54 99.333 122.833 169.333 206.5 210
s203.167 61 358.5 61h436v-174h-424c-93.333 0 -163.333 -7.16699 -210 -21.5s-86.334 -40.833 -119.001 -79.5c-35.333 -41.333 -63.333 -99.666 -84 -174.999s-31 -158 -31 -248c0 -168 39.333 -296.667 118 -386c36 -40.667 78.833 -68.667 128.5 -84
s121.5 -23 215.5 -23h406z" />
    <glyph glyph-name="Egrave" unicode="&#xc8;" horiz-adv-x="1220" 
d="M1125 1365l0.000976562 -174h-398c-72.667 0 -129.667 -5 -171 -15s-77.333 -27.667 -108 -53c-44.667 -35.333 -77.667 -80 -99 -134c-12 -31.333 -21.667 -64.166 -29 -98.499s-11 -72.833 -11 -115.5h816v-174h-816c0 -50.667 5.16699 -98 15.5 -142
s26.833 -85.667 49.5 -125c34 -58 76.667 -99.167 128 -123.5s122.666 -36.5 213.999 -36.5h409v-174h-449c-114 0 -207 13 -279 39c-127.333 46 -221 147.667 -281 305c-32 84 -48 188 -48 312c0 163.333 26 296.666 78 399.999c58 111.333 131.667 191 221 239
c44 22.667 97.167 40 159.5 52s133.5 18 213.5 18h385zM877.001 1481h-153l-257 246h219z" />
    <glyph glyph-name="Eacute" unicode="&#xc9;" horiz-adv-x="1220" 
d="M1125 1365l0.000976562 -174h-398c-72.667 0 -129.667 -5 -171 -15s-77.333 -27.667 -108 -53c-44.667 -35.333 -77.667 -80 -99 -134c-12 -31.333 -21.667 -64.166 -29 -98.499s-11 -72.833 -11 -115.5h816v-174h-816c0 -50.667 5.16699 -98 15.5 -142
s26.833 -85.667 49.5 -125c34 -58 76.667 -99.167 128 -123.5s122.666 -36.5 213.999 -36.5h409v-174h-449c-114 0 -207 13 -279 39c-127.333 46 -221 147.667 -281 305c-32 84 -48 188 -48 312c0 163.333 26 296.666 78 399.999c58 111.333 131.667 191 221 239
c44 22.667 97.167 40 159.5 52s133.5 18 213.5 18h385zM590.001 1481l191 246h219l-258 -246h-152z" />
    <glyph glyph-name="Ecircumflex" unicode="&#xca;" horiz-adv-x="1220" 
d="M1125 1365l0.000976562 -174h-398c-72.667 0 -129.667 -5 -171 -15s-77.333 -27.667 -108 -53c-44.667 -35.333 -77.667 -80 -99 -134c-12 -31.333 -21.667 -64.166 -29 -98.499s-11 -72.833 -11 -115.5h816v-174h-816c0 -50.667 5.16699 -98 15.5 -142
s26.833 -85.667 49.5 -125c34 -58 76.667 -99.167 128 -123.5s122.666 -36.5 213.999 -36.5h409v-174h-449c-114 0 -207 13 -279 39c-127.333 46 -221 147.667 -281 305c-32 84 -48 188 -48 312c0 163.333 26 296.666 78 399.999c58 111.333 131.667 191 221 239
c44 22.667 97.167 40 159.5 52s133.5 18 213.5 18h385zM722.001 1629l-144 -148h-177l229 246h184l229 -246h-178z" />
    <glyph glyph-name="Edieresis" unicode="&#xcb;" horiz-adv-x="1220" 
d="M1125 1365l0.000976562 -174h-398c-72.667 0 -129.667 -5 -171 -15s-77.333 -27.667 -108 -53c-44.667 -35.333 -77.667 -80 -99 -134c-12 -31.333 -21.667 -64.166 -29 -98.499s-11 -72.833 -11 -115.5h816v-174h-816c0 -50.667 5.16699 -98 15.5 -142
s26.833 -85.667 49.5 -125c34 -58 76.667 -99.167 128 -123.5s122.666 -36.5 213.999 -36.5h409v-174h-449c-114 0 -207 13 -279 39c-127.333 46 -221 147.667 -281 305c-32 84 -48 188 -48 312c0 163.333 26 296.666 78 399.999c58 111.333 131.667 191 221 239
c44 22.667 97.167 40 159.5 52s133.5 18 213.5 18h385zM1015 1700v-212h-196v212h196zM624.001 1700v-212h-196v212h196z" />
    <glyph glyph-name="Igrave" unicode="&#xcc;" 
d="M147 0v1365h218v-1365h-218zM352 1481h-146l-216 246h205z" />
    <glyph glyph-name="Iacute" unicode="&#xcd;" 
d="M147 0v1365h218v-1365h-218zM161 1481l156 246h205l-216 -246h-145z" />
    <glyph glyph-name="Icircumflex" unicode="&#xce;" 
d="M147 0v1365h218v-1365h-218zM256 1632l-99 -151h-167l178 246h176l178 -246h-166z" />
    <glyph glyph-name="Idieresis" unicode="&#xcf;" 
d="M147 0v1365h218v-1365h-218zM488 1700v-212h-189v212h189zM213 1700v-212h-189v212h189z" />
    <glyph glyph-name="Eth" unicode="&#xd0;" horiz-adv-x="1358" 
d="M481 1727h126.001c20 -74 76 -111 168 -111c90 0 145.667 37 167 111h126c0 -27.333 -4 -52 -12 -74s-20 -43.667 -36 -65c-52.667 -72.667 -135.334 -109 -248.001 -109c-85.333 0 -153.333 21.667 -204 65s-79.667 104.333 -87 183zM608.001 783l639.001 0.000976562
v-783h-505c-69.333 0 -129.333 2.66699 -180 8s-95 14 -133 26c-92 28 -170.333 83.667 -235 167c-83.333 107.333 -125 265.666 -125 474.999c0 300 83.667 501.333 251 604c52 31.333 110 53.333 174 66c32 6 69.5 10.667 112.5 14s91.5 5 145.5 5h495v-174h-478
c-46.667 0 -84.334 -0.666992 -113.001 -2s-56.667 -4.5 -84 -9.5s-59.666 -18.5 -96.999 -40.5c-116 -71.333 -174 -220 -174 -446c0 -88 6 -159.5 18 -214.5s33 -106.167 63 -153.5c38 -58.667 83.667 -98.667 137 -120c26.667 -10 60.667 -17.667 102 -23
s90.666 -8 147.999 -8h260v435h-421v174z" />
    <glyph glyph-name="Ntilde" unicode="&#xd1;" horiz-adv-x="1462" 
d="M359 1089v-1089h-212v1365h260l696 -1092v1092h212v-1365h-253zM1073 1706c-10 -71.333 -30.5 -125.5 -61.5 -162.5s-71.833 -55.5 -122.5 -55.5c-41.333 0 -99.666 17.667 -174.999 53c-46 21.333 -82 32 -108 32c-46.667 0 -75.667 -27 -87 -81h-115
c20 145.333 84 218 192 218c20 0 42.167 -3.33301 66.5 -10s53.5 -18 87.5 -34l80 -35c13.333 -4 28.666 -6 45.999 -6c42.667 0 70 27 82 81h115z" />
    <glyph glyph-name="Ograve" unicode="&#xd2;" horiz-adv-x="1462" 
d="M740 1385c257.333 0 437.334 -77.666 540.001 -232.999c74.667 -115.333 112 -273 112 -473c0 -246.667 -62.333 -426.334 -187 -539.001c-120 -106.667 -281.667 -160 -485 -160c-233.333 0 -403.333 66.333 -510 199c-42 52 -76 123.833 -102 215.5
s-39 186.834 -39 285.501c0 101.333 13.5 196.666 40.5 285.999s63.833 161 110.5 215c57.333 67.333 128.666 118 213.999 152c41.333 16 88 28.667 140 38s107.333 14 166 14zM738.001 1211c-188 0 -314.333 -65.668 -379 -197.001c-38.667 -80.667 -58 -190.667 -58 -330
c0 -169.333 28.333 -296.333 85 -381c66 -99.333 182.333 -149 349 -149c188 0 313 66.333 375 199c33.333 72.667 50 179.334 50 320.001c0 172.667 -24.667 298 -74 376c-68 108 -184 162 -348 162zM881.001 1481h-153l-257 246h219z" />
    <glyph glyph-name="Oacute" unicode="&#xd3;" horiz-adv-x="1462" 
d="M740 1385c257.333 0 437.334 -77.666 540.001 -232.999c74.667 -115.333 112 -273 112 -473c0 -246.667 -62.333 -426.334 -187 -539.001c-120 -106.667 -281.667 -160 -485 -160c-233.333 0 -403.333 66.333 -510 199c-42 52 -76 123.833 -102 215.5
s-39 186.834 -39 285.501c0 101.333 13.5 196.666 40.5 285.999s63.833 161 110.5 215c57.333 67.333 128.666 118 213.999 152c41.333 16 88 28.667 140 38s107.333 14 166 14zM738.001 1211c-188 0 -314.333 -65.668 -379 -197.001c-38.667 -80.667 -58 -190.667 -58 -330
c0 -169.333 28.333 -296.333 85 -381c66 -99.333 182.333 -149 349 -149c188 0 313 66.333 375 199c33.333 72.667 50 179.334 50 320.001c0 172.667 -24.667 298 -74 376c-68 108 -184 162 -348 162zM594.001 1481l191 246h219l-258 -246h-152z" />
    <glyph glyph-name="Ocircumflex" unicode="&#xd4;" horiz-adv-x="1462" 
d="M740 1385c257.333 0 437.334 -77.666 540.001 -232.999c74.667 -115.333 112 -273 112 -473c0 -246.667 -62.333 -426.334 -187 -539.001c-120 -106.667 -281.667 -160 -485 -160c-233.333 0 -403.333 66.333 -510 199c-42 52 -76 123.833 -102 215.5
s-39 186.834 -39 285.501c0 101.333 13.5 196.666 40.5 285.999s63.833 161 110.5 215c57.333 67.333 128.666 118 213.999 152c41.333 16 88 28.667 140 38s107.333 14 166 14zM738.001 1211c-188 0 -314.333 -65.668 -379 -197.001c-38.667 -80.667 -58 -190.667 -58 -330
c0 -169.333 28.333 -296.333 85 -381c66 -99.333 182.333 -149 349 -149c188 0 313 66.333 375 199c33.333 72.667 50 179.334 50 320.001c0 172.667 -24.667 298 -74 376c-68 108 -184 162 -348 162zM731.001 1629l-144 -148h-177l229 246h184l229 -246h-178z" />
    <glyph glyph-name="Otilde" unicode="&#xd5;" horiz-adv-x="1462" 
d="M740 1385c257.333 0 437.334 -77.666 540.001 -232.999c74.667 -115.333 112 -273 112 -473c0 -246.667 -62.333 -426.334 -187 -539.001c-120 -106.667 -281.667 -160 -485 -160c-233.333 0 -403.333 66.333 -510 199c-42 52 -76 123.833 -102 215.5
s-39 186.834 -39 285.501c0 101.333 13.5 196.666 40.5 285.999s63.833 161 110.5 215c57.333 67.333 128.666 118 213.999 152c41.333 16 88 28.667 140 38s107.333 14 166 14zM738.001 1211c-188 0 -314.333 -65.668 -379 -197.001c-38.667 -80.667 -58 -190.667 -58 -330
c0 -169.333 28.333 -296.333 85 -381c66 -99.333 182.333 -149 349 -149c188 0 313 66.333 375 199c33.333 72.667 50 179.334 50 320.001c0 172.667 -24.667 298 -74 376c-68 108 -184 162 -348 162zM1079 1706c-10 -71.333 -30.5 -125.5 -61.5 -162.5
s-71.833 -55.5 -122.5 -55.5c-41.333 0 -99.666 17.667 -174.999 53c-46 21.333 -82 32 -108 32c-46.667 0 -75.667 -27 -87 -81h-115c20 145.333 84 218 192 218c20 0 42.167 -3.33301 66.5 -10s53.5 -18 87.5 -34l80 -35c13.333 -4 28.666 -6 45.999 -6
c42.667 0 70 27 82 81h115z" />
    <glyph glyph-name="Odieresis" unicode="&#xd6;" horiz-adv-x="1462" 
d="M740 1385c257.333 0 437.334 -77.666 540.001 -232.999c74.667 -115.333 112 -273 112 -473c0 -246.667 -62.333 -426.334 -187 -539.001c-120 -106.667 -281.667 -160 -485 -160c-233.333 0 -403.333 66.333 -510 199c-42 52 -76 123.833 -102 215.5
s-39 186.834 -39 285.501c0 101.333 13.5 196.666 40.5 285.999s63.833 161 110.5 215c57.333 67.333 128.666 118 213.999 152c41.333 16 88 28.667 140 38s107.333 14 166 14zM738.001 1211c-188 0 -314.333 -65.668 -379 -197.001c-38.667 -80.667 -58 -190.667 -58 -330
c0 -169.333 28.333 -296.333 85 -381c66 -99.333 182.333 -149 349 -149c188 0 313 66.333 375 199c33.333 72.667 50 179.334 50 320.001c0 172.667 -24.667 298 -74 376c-68 108 -184 162 -348 162zM1024 1700v-212h-195v212h195zM633.001 1700v-212h-196v212h196z" />
    <glyph glyph-name="multiply" unicode="&#xd7;" horiz-adv-x="1125" 
d="M113 372l327 327l-327 327l122 122l327 -327l327 327l122 -122l-327 -327l327 -327l-122 -123l-327 327l-327 -327z" />
    <glyph glyph-name="Oslash" unicode="&#xd8;" horiz-adv-x="1462" 
d="M315 83l-89 -103h-198l176 205c-42 56 -75 128 -99 216s-36 180.333 -36 277c0 102.667 13.167 198.5 39.5 287.5s63.5 160.833 111.5 215.5c117.333 136.667 290.333 205 519 205c170.667 0 307 -33.667 409 -101l87 101h198l-175 -204
c89.333 -118.667 134 -283.667 134 -495c0 -252 -62.333 -434.333 -187 -547c-120 -106.667 -281 -160 -483 -160c-160 0 -295.667 34.333 -407 103zM446 236c66 -54.667 163 -82 291 -82c188 0 312.333 66.333 373 199c33.333 72.667 50 180.667 50 324
c0 62 -4.83301 124 -14.5 186s-22.167 110 -37.5 144zM355 360l660.001 770c-70 54 -162 81 -276 81c-188.667 0 -315.334 -65.667 -380.001 -197c-38.667 -80.667 -58 -191 -58 -331c0 -126 18 -233.667 54 -323z" />
    <glyph glyph-name="Ugrave" unicode="&#xd9;" horiz-adv-x="1423" 
d="M348 1365l0.00195312 -811c0 -40 1 -74.333 3 -103s5.66699 -54.667 11 -78c9.33301 -44 25.333 -80 48 -108c59.333 -74.667 158.666 -112 297.999 -112c154.667 0 261.667 43.667 321 131c16 24 27.667 56.667 35 98c2.66699 18 5 44 7 78s3 71 3 111v794h218v-794
c0 -120 -6.66699 -207.667 -20 -263c-26 -112 -101 -198.667 -225 -260c-94 -46 -215.667 -69 -365 -69c-134.667 0 -241.334 21.667 -320.001 65c-104 56 -173 142 -207 258c-16.667 58.667 -25 142.667 -25 252v811h218zM862.002 1481h-153l-257 246h219z" />
    <glyph glyph-name="Uacute" unicode="&#xda;" horiz-adv-x="1423" 
d="M348 1365l0.00195312 -811c0 -40 1 -74.333 3 -103s5.66699 -54.667 11 -78c9.33301 -44 25.333 -80 48 -108c59.333 -74.667 158.666 -112 297.999 -112c154.667 0 261.667 43.667 321 131c16 24 27.667 56.667 35 98c2.66699 18 5 44 7 78s3 71 3 111v794h218v-794
c0 -120 -6.66699 -207.667 -20 -263c-26 -112 -101 -198.667 -225 -260c-94 -46 -215.667 -69 -365 -69c-134.667 0 -241.334 21.667 -320.001 65c-104 56 -173 142 -207 258c-16.667 58.667 -25 142.667 -25 252v811h218zM575.002 1481l191 246h219l-258 -246h-152z" />
    <glyph glyph-name="Ucircumflex" unicode="&#xdb;" horiz-adv-x="1423" 
d="M348 1365l0.00195312 -811c0 -40 1 -74.333 3 -103s5.66699 -54.667 11 -78c9.33301 -44 25.333 -80 48 -108c59.333 -74.667 158.666 -112 297.999 -112c154.667 0 261.667 43.667 321 131c16 24 27.667 56.667 35 98c2.66699 18 5 44 7 78s3 71 3 111v794h218v-794
c0 -120 -6.66699 -207.667 -20 -263c-26 -112 -101 -198.667 -225 -260c-94 -46 -215.667 -69 -365 -69c-134.667 0 -241.334 21.667 -320.001 65c-104 56 -173 142 -207 258c-16.667 58.667 -25 142.667 -25 252v811h218zM711.002 1629l-144 -148h-177l229 246h184
l229 -246h-178z" />
    <glyph glyph-name="Udieresis" unicode="&#xdc;" horiz-adv-x="1423" 
d="M348 1365l0.00195312 -811c0 -40 1 -74.333 3 -103s5.66699 -54.667 11 -78c9.33301 -44 25.333 -80 48 -108c59.333 -74.667 158.666 -112 297.999 -112c154.667 0 261.667 43.667 321 131c16 24 27.667 56.667 35 98c2.66699 18 5 44 7 78s3 71 3 111v794h218v-794
c0 -120 -6.66699 -207.667 -20 -263c-26 -112 -101 -198.667 -225 -260c-94 -46 -215.667 -69 -365 -69c-134.667 0 -241.334 21.667 -320.001 65c-104 56 -173 142 -207 258c-16.667 58.667 -25 142.667 -25 252v811h218zM1005 1700v-212h-196v212h196zM614.002 1700v-212
h-196v212h196z" />
    <glyph glyph-name="Yacute" unicode="&#xdd;" 
d="M354 1700v-212h-196v212h196zM147 0v1365h218v-1365h-218z" />
    <glyph glyph-name="Thorn" unicode="&#xde;" horiz-adv-x="1304" 
d="M644 0l-0.000976562 -89h16c10.667 0.666992 25.334 -0.333008 44.001 -3c19.333 -4 33.333 -8.33301 42 -13c45.333 -22 68 -65 68 -129c0 -54.667 -17.167 -95 -51.5 -121s-88.833 -39 -163.5 -39h-109v95h103c64.667 0 97 19.667 97 59c0 37.333 -32.333 56 -97 56
h-49v184h-448v174h590c90.667 0 155.667 11.333 195 34c60 34 90 93 90 177c0 105.333 -39 171 -117 197c-35.333 11.333 -105 17 -209 17h-114c-157.333 0 -270 21.667 -338 65c-97.333 61.333 -146 158.333 -146 291c0 87.333 22 164.333 66 231
s100.667 113.167 170 139.5s167 39.5 293 39.5h562v-174h-562c-59.333 0 -105 -3 -137 -9c-30.667 -4.66699 -58 -14.667 -82 -30c-52 -34 -78 -89.333 -78 -166c0 -68 23 -116.667 69 -146s122 -44 228 -44h82c118 0 205.333 -5.16699 262 -15.5s103.667 -29.833 141 -58.5
c42.667 -33.333 77 -79.333 103 -138s39 -122.667 39 -192c0 -162 -62.667 -275.333 -188 -340c-68 -34.667 -169 -52 -303 -52h-68z" />
    <glyph glyph-name="germandbls" unicode="&#xdf;" horiz-adv-x="1147" 
d="M340 826l-0.000976562 -826h-198v951c0 99.333 6 173.333 18 222s33.667 86.334 65 113.001c67.333 56 172.333 84 315 84c116 0 206.333 -19.333 271 -58c69.333 -42 104 -105.667 104 -191c0 -63.333 -28.333 -120 -85 -170c50 -12 88.5 -28.333 115.5 -49
s50.833 -51 71.5 -91c36 -68 54 -161 54 -279c0 -208 -54.667 -357.667 -164 -449c-31.333 -26 -66 -45.667 -104 -59c-18 -6 -39.667 -11.167 -65 -15.5s-51 -6.5 -77 -6.5l-178 -2h-76v159h194c62 0 108.667 7 140 21s57.333 39.667 78 77
c31.333 59.333 47 140.666 47 243.999c0 118.667 -19.667 204.667 -59 258c-19.333 25.333 -44.666 42.833 -75.999 52.5s-79.333 14.5 -144 14.5h-247zM339.999 983l205 -0.000976562c66.667 0 111.334 6.33301 134.001 19c32.667 18.667 49 50.334 49 95.001
c0 37.333 -15.333 64.833 -46 82.5s-79.334 26.5 -146.001 26.5c-74.667 0 -126 -12.333 -154 -37s-42 -70.667 -42 -138v-48z" />
    <glyph glyph-name="agrave" unicode="&#xe0;" horiz-adv-x="1140" 
d="M814 608c0 100.667 -12.8301 164.501 -38.4971 191.501s-87.834 40.5 -186.501 40.5h-469v157h512c88 0 155.667 -6.66699 203 -20s85.333 -37.333 114 -72c23.333 -27.333 39.666 -61.333 48.999 -102s14 -98.334 14 -173.001v-630h-504
c-94.667 -0 -158.334 3.33301 -191.001 10c-76 14 -134.167 46.167 -174.5 96.5s-60.5 114.833 -60.5 193.5c0 58 11 109.833 33 155.5s52.667 81.5 92 107.5c48 30 132 45 252 45h355zM814.003 451.001h-331c-56 0 -98.667 -6 -128 -18c-45.333 -20 -68 -63.333 -68 -130
c0 -52.667 14.833 -90.167 44.5 -112.5s80.167 -33.5 151.5 -33.5h331v294zM732.003 1120h-152l-244 259h205z" />
    <glyph glyph-name="aacute" unicode="&#xe1;" horiz-adv-x="1140" 
d="M814 608c0 100.667 -12.8301 164.501 -38.4971 191.501s-87.834 40.5 -186.501 40.5h-469v157h512c88 0 155.667 -6.66699 203 -20s85.333 -37.333 114 -72c23.333 -27.333 39.666 -61.333 48.999 -102s14 -98.334 14 -173.001v-630h-504
c-94.667 -0 -158.334 3.33301 -191.001 10c-76 14 -134.167 46.167 -174.5 96.5s-60.5 114.833 -60.5 193.5c0 58 11 109.833 33 155.5s52.667 81.5 92 107.5c48 30 132 45 252 45h355zM814.003 451.001h-331c-56 0 -98.667 -6 -128 -18c-45.333 -20 -68 -63.333 -68 -130
c0 -52.667 14.833 -90.167 44.5 -112.5s80.167 -33.5 151.5 -33.5h331v294zM452.003 1120l191 259h205l-244 -259h-152z" />
    <glyph glyph-name="acircumflex" unicode="&#xe2;" horiz-adv-x="1140" 
d="M814 608c0 100.667 -12.8301 164.501 -38.4971 191.501s-87.834 40.5 -186.501 40.5h-469v157h512c88 0 155.667 -6.66699 203 -20s85.333 -37.333 114 -72c23.333 -27.333 39.666 -61.333 48.999 -102s14 -98.334 14 -173.001v-630h-504
c-94.667 -0 -158.334 3.33301 -191.001 10c-76 14 -134.167 46.167 -174.5 96.5s-60.5 114.833 -60.5 193.5c0 58 11 109.833 33 155.5s52.667 81.5 92 107.5c48 30 132 45 252 45h355zM814.003 451.001h-331c-56 0 -98.667 -6 -128 -18c-45.333 -20 -68 -63.333 -68 -130
c0 -52.667 14.833 -90.167 44.5 -112.5s80.167 -33.5 151.5 -33.5h331v294zM588.003 1285l-139 -165h-175l222 259h184l222 -259h-175z" />
    <glyph glyph-name="atilde" unicode="&#xe3;" horiz-adv-x="1140" 
d="M814 608c0 100.667 -12.8301 164.501 -38.4971 191.501s-87.834 40.5 -186.501 40.5h-469v157h512c88 0 155.667 -6.66699 203 -20s85.333 -37.333 114 -72c23.333 -27.333 39.666 -61.333 48.999 -102s14 -98.334 14 -173.001v-630h-504
c-94.667 -0 -158.334 3.33301 -191.001 10c-76 14 -134.167 46.167 -174.5 96.5s-60.5 114.833 -60.5 193.5c0 58 11 109.833 33 155.5s52.667 81.5 92 107.5c48 30 132 45 252 45h355zM814.003 451.001h-331c-56 0 -98.667 -6 -128 -18c-45.333 -20 -68 -63.333 -68 -130
c0 -52.667 14.833 -90.167 44.5 -112.5s80.167 -33.5 151.5 -33.5h331v294zM916.003 1348c-9.33301 -71.333 -28.8359 -125.5 -58.5029 -162.5s-68.167 -55.5 -115.5 -55.5c-41.333 0 -99.666 17.667 -174.999 53c-23.333 10.667 -43.666 18.667 -60.999 24
s-32.666 8 -45.999 8c-42 0 -68 -27 -78 -81h-115c18 145.333 78.667 218 182 218c20 0 42.167 -3.33301 66.5 -10s53.5 -18 87.5 -34l48 -22c12 -5.33301 23.667 -9.83301 35 -13.5s25 -5.5 41 -5.5c37.333 0 62 27 74 81h115z" />
    <glyph glyph-name="adieresis" unicode="&#xe4;" horiz-adv-x="1140" 
d="M814 608c0 100.667 -12.8301 164.501 -38.4971 191.501s-87.834 40.5 -186.501 40.5h-469v157h512c88 0 155.667 -6.66699 203 -20s85.333 -37.333 114 -72c23.333 -27.333 39.666 -61.333 48.999 -102s14 -98.334 14 -173.001v-630h-504
c-94.667 -0 -158.334 3.33301 -191.001 10c-76 14 -134.167 46.167 -174.5 96.5s-60.5 114.833 -60.5 193.5c0 58 11 109.833 33 155.5s52.667 81.5 92 107.5c48 30 132 45 252 45h355zM814.003 451.001h-331c-56 0 -98.667 -6 -128 -18c-45.333 -20 -68 -63.333 -68 -130
c0 -52.667 14.833 -90.167 44.5 -112.5s80.167 -33.5 151.5 -33.5h331v294zM873.003 1345v-212h-193v212h193zM498.003 1345v-212h-193v212h193z" />
    <glyph glyph-name="aring" unicode="&#xe5;" horiz-adv-x="1140" 
d="M814 608c0 100.667 -12.8301 164.501 -38.4971 191.501s-87.834 40.5 -186.501 40.5h-469v157h512c88 0 155.667 -6.66699 203 -20s85.333 -37.333 114 -72c23.333 -27.333 39.666 -61.333 48.999 -102s14 -98.334 14 -173.001v-630h-504
c-94.667 -0 -158.334 3.33301 -191.001 10c-76 14 -134.167 46.167 -174.5 96.5s-60.5 114.833 -60.5 193.5c0 58 11 109.833 33 155.5s52.667 81.5 92 107.5c48 30 132 45 252 45h355zM814.003 451.001h-331c-56 0 -98.667 -6 -128 -18c-45.333 -20 -68 -63.333 -68 -130
c0 -52.667 14.833 -90.167 44.5 -112.5s80.167 -33.5 151.5 -33.5h331v294zM592.003 1478c53.333 0 100 -21.333 140 -64c33.333 -36.667 50 -79.667 50 -129c0 -56.667 -21.333 -104.334 -64 -143.001c-37.333 -33.333 -80.333 -50 -129 -50
c-57.333 0 -105.333 21.333 -144 64c-33.333 36.667 -50 80.334 -50 131.001c0 55.333 21.333 102.333 64 141c36.667 33.333 81 50 133 50zM590.003 1375c-26.667 0 -48.668 -8.66895 -66.001 -26.002s-26 -38.333 -26 -63c0 -25.333 8.66699 -46.833 26 -64.5
s39 -26.5 65 -26.5c24.667 0 45.834 8.83301 63.501 26.5s26.5 38.834 26.5 63.501s-8.5 45.834 -25.5 63.501s-38.167 26.5 -63.5 26.5z" />
    <glyph glyph-name="ae" unicode="&#xe6;" horiz-adv-x="1704" 
d="M964 884c42 40 90.3379 68.998 145.005 86.998c25.333 8 56.666 14.333 93.999 19s77.666 7 120.999 7h287v-157h-258c-69.333 0 -123 -5.16699 -161 -15.5s-70.667 -29.166 -98 -56.499c-40 -39.333 -66.667 -98.666 -80 -177.999h597v-157h-598
c0 -90.667 23 -160.334 69 -209.001c23.333 -23.333 53.166 -40.333 89.499 -51s87.166 -16 152.499 -16h287v-157h-1103c-94.667 0 -158.334 3.33301 -191.001 10c-76 14 -134.167 46.167 -174.5 96.5s-60.5 115.833 -60.5 196.5c0 99.333 30 172 90 218s155.667 69 287 69
h355c0 72.667 -3.33301 123.334 -10 152.001c-8.66699 39.333 -27.667 65.333 -57 78c-14 6.66699 -33.667 11.667 -59 15s-58.333 5 -99 5h-469v157h512c96 0 168.333 -8.16699 217 -24.5s87 -45.833 115 -88.5zM814.005 453.998h-331c-56 0 -98.667 -6 -128 -18
c-45.333 -20 -68 -63.333 -68 -130c0 -52.667 14.833 -90.167 44.5 -112.5s80.167 -33.5 151.5 -33.5h331v294z" />
    <glyph glyph-name="ccedilla" unicode="&#xe7;" horiz-adv-x="963" 
d="M605 0l-0.000976562 -82h15h4c24 0 44 -2.5 60 -7.5s30.667 -13.833 44 -26.5c26 -24 39 -58.333 39 -103c0 -52 -16.833 -90.333 -50.5 -115s-85.5 -37 -155.5 -37h-104v88h98c62 0 93 19.667 93 59c0 36 -31 54 -93 54h-47v171c-22 0 -56.667 3.66699 -104 11
s-86.166 18.333 -116.499 33s-60.5 38 -90.5 70c-83.333 92.667 -125 214.334 -125 365.001c0 161.333 43.667 289.666 131 384.999c44 48 94.167 82 150.5 102s130.833 30 223.5 30h317v-157h-317c-63.333 0 -113.5 -7.16699 -150.5 -21.5s-67.5 -38.5 -91.5 -72.5
c-38.667 -56.667 -58 -139.667 -58 -249c0 -130 28 -223 84 -279c40.667 -40.667 112.667 -61 216 -61h317v-157h-289z" />
    <glyph glyph-name="egrave" unicode="&#xe8;" horiz-adv-x="973" 
d="M881 590v-157h-598c0 -90.667 23 -160.334 69 -209.001c23.333 -24.667 53 -42 89 -52s87 -15 153 -15h287v-157h-341c-86 0 -152.5 6.5 -199.5 19.5s-89.167 36.5 -126.5 70.5c-94.667 85.333 -142 215 -142 389c0 211.333 72 361 216 449c75.333 46 177.333 69 306 69
h287v-157h-258c-69.333 0 -123 -5.16699 -161 -15.5s-70.667 -29.166 -98 -56.499c-41.333 -40 -68.333 -99.333 -81 -178h598zM706 1120h-152l-244 259h205z" />
    <glyph glyph-name="eacute" unicode="&#xe9;" horiz-adv-x="973" 
d="M881 590v-157h-598c0 -90.667 23 -160.334 69 -209.001c23.333 -24.667 53 -42 89 -52s87 -15 153 -15h287v-157h-341c-86 0 -152.5 6.5 -199.5 19.5s-89.167 36.5 -126.5 70.5c-94.667 85.333 -142 215 -142 389c0 211.333 72 361 216 449c75.333 46 177.333 69 306 69
h287v-157h-258c-69.333 0 -123 -5.16699 -161 -15.5s-70.667 -29.166 -98 -56.499c-41.333 -40 -68.333 -99.333 -81 -178h598zM449 1120l191 259h205l-244 -259h-152z" />
    <glyph glyph-name="ecircumflex" unicode="&#xea;" horiz-adv-x="973" 
d="M881 590v-157h-598c0 -90.667 23 -160.334 69 -209.001c23.333 -24.667 53 -42 89 -52s87 -15 153 -15h287v-157h-341c-86 0 -152.5 6.5 -199.5 19.5s-89.167 36.5 -126.5 70.5c-94.667 85.333 -142 215 -142 389c0 211.333 72 361 216 449c75.333 46 177.333 69 306 69
h287v-157h-258c-69.333 0 -123 -5.16699 -161 -15.5s-70.667 -29.166 -98 -56.499c-41.333 -40 -68.333 -99.333 -81 -178h598zM567 1285l-139 -165h-175l222 259h184l222 -259h-175z" />
    <glyph glyph-name="edieresis" unicode="&#xeb;" horiz-adv-x="973" 
d="M881 590v-157h-598c0 -90.667 23 -160.334 69 -209.001c23.333 -24.667 53 -42 89 -52s87 -15 153 -15h287v-157h-341c-86 0 -152.5 6.5 -199.5 19.5s-89.167 36.5 -126.5 70.5c-94.667 85.333 -142 215 -142 389c0 211.333 72 361 216 449c75.333 46 177.333 69 306 69
h287v-157h-258c-69.333 0 -123 -5.16699 -161 -15.5s-70.667 -29.166 -98 -56.499c-41.333 -40 -68.333 -99.333 -81 -178h598zM851 1345v-212h-193v212h193zM476 1345v-212h-193v212h193z" />
    <glyph glyph-name="igrave" unicode="&#xec;" horiz-adv-x="482" 
d="M142 997h198v-997h-198v997zM326 1120h-149l-192 259h191z" />
    <glyph glyph-name="iacute" unicode="&#xed;" horiz-adv-x="482" 
d="M142 997h198v-997h-198v997zM156 1120l150 259h191l-192 -259h-149z" />
    <glyph glyph-name="icircumflex" unicode="&#xee;" horiz-adv-x="482" 
d="M142 997h198v-997h-198v997zM241 1284l-99 -164h-160l171 259h176l172 -259h-160z" />
    <glyph glyph-name="idieresis" unicode="&#xef;" horiz-adv-x="482" 
d="M142 997h198v-997h-198v997zM471 1345v-212h-186v212h186zM198 1345v-212h-186v212h186z" />
    <glyph glyph-name="eth" unicode="&#xf0;" horiz-adv-x="1152" 
d="M340 1379h126.001c18 -86.667 71.333 -130 160 -130c87.333 0 141 43.333 161 130h126c0 -27.333 -4.16699 -53.5 -12.5 -78.5s-19.5 -47.833 -33.5 -68.5c-52.667 -76.667 -132.334 -115 -239.001 -115c-85.333 0 -153 22.667 -203 68c-26.667 24.667 -47 52 -61 82
c-16 34 -24 71.333 -24 112zM1011 997l-0.000976562 -883.999c0 -132 -3 -215 -9 -249c-4 -33.333 -18 -64 -42 -92c-28.667 -33.333 -68.667 -56.333 -120 -69c-25.333 -6.66699 -56.5 -11.667 -93.5 -15s-82.5 -5 -136.5 -5h-426v157h456c56.667 0 95.167 2.66699 115.5 8
s35.5 17.333 45.5 36c8 19.333 12 58 12 116h-214c-101.333 0 -170.833 3.16699 -208.5 9.5s-77.5 22.5 -119.5 48.5c-130 76 -195 215.333 -195 418c0 167.333 42.333 298.666 127 393.999c42 48 92.333 81.167 151 99.5s140.334 27.5 245.001 27.5h412zM813 840.001
l-199.001 0.00292969c-85.333 0 -144.666 -6.66699 -177.999 -20c-62 -24 -105.333 -78.667 -130 -164c-16.667 -60.667 -25 -120.334 -25 -179.001c0 -100.667 23.333 -181.334 70 -242.001c22 -28.667 49.833 -48.834 83.5 -60.501s82.167 -17.5 145.5 -17.5h233v683z" />
    <glyph glyph-name="ntilde" unicode="&#xf1;" horiz-adv-x="1134" 
d="M142 997l460.999 0.00292969c88 0 157.833 -9.33301 209.5 -28s93.834 -50.334 126.501 -95.001c22 -28.667 38.667 -65.834 50 -111.501s17 -101.834 17 -168.501v-594h-198v573c0 100 -17.167 169.5 -51.5 208.5s-95.833 58.5 -184.5 58.5h-232v-840h-198v997z
M884.999 1348c-9.33301 -71.333 -28.8359 -125.5 -58.5029 -162.5s-68.167 -55.5 -115.5 -55.5c-41.333 0 -99.666 17.667 -174.999 53c-23.333 10.667 -43.666 18.667 -60.999 24s-32.666 8 -45.999 8c-42 0 -68 -27 -78 -81h-115c18 145.333 78.667 218 182 218
c20 0 42.167 -3.33301 66.5 -10s53.5 -18 87.5 -34l48 -22c12 -5.33301 23.667 -9.83301 35 -13.5s25 -5.5 41 -5.5c37.333 0 62 27 74 81h115z" />
    <glyph glyph-name="ograve" unicode="&#xf2;" horiz-adv-x="1162" 
d="M592 1008c159.333 0 283.667 -46 373 -138c83.333 -86.667 125 -212 125 -376c0 -153.333 -42.333 -274.666 -127 -363.999c-90 -94 -217.333 -141 -382 -141c-172.667 0 -304 48 -394 144c-76.667 82 -115 198 -115 348c0 157.333 43 284.666 129 381.999
c42.667 47.333 96.5 83.333 161.5 108s141.5 37 229.5 37zM580.001 844c-97.333 0 -172.167 -30.168 -224.5 -90.501s-78.5 -146.833 -78.5 -259.5c0 -106.667 21.333 -186.667 64 -240c54 -67.333 132.333 -101 235 -101c206 0 309 112 309 336
c0 114 -26.333 201.333 -79 262c-26 30.667 -57.833 53.834 -95.5 69.501s-81.167 23.5 -130.5 23.5zM724 1120h-152l-244 259h205z" />
    <glyph glyph-name="oacute" unicode="&#xf3;" horiz-adv-x="1162" 
d="M592 1008c159.333 0 283.667 -46 373 -138c83.333 -86.667 125 -212 125 -376c0 -153.333 -42.333 -274.666 -127 -363.999c-90 -94 -217.333 -141 -382 -141c-172.667 0 -304 48 -394 144c-76.667 82 -115 198 -115 348c0 157.333 43 284.666 129 381.999
c42.667 47.333 96.5 83.333 161.5 108s141.5 37 229.5 37zM580.001 844c-97.333 0 -172.167 -30.168 -224.5 -90.501s-78.5 -146.833 -78.5 -259.5c0 -106.667 21.333 -186.667 64 -240c54 -67.333 132.333 -101 235 -101c206 0 309 112 309 336
c0 114 -26.333 201.333 -79 262c-26 30.667 -57.833 53.834 -95.5 69.501s-81.167 23.5 -130.5 23.5zM451 1120l191 259h205l-244 -259h-152z" />
    <glyph glyph-name="ocircumflex" unicode="&#xf4;" horiz-adv-x="1162" 
d="M592 1008c159.333 0 283.667 -46 373 -138c83.333 -86.667 125 -212 125 -376c0 -153.333 -42.333 -274.666 -127 -363.999c-90 -94 -217.333 -141 -382 -141c-172.667 0 -304 48 -394 144c-76.667 82 -115 198 -115 348c0 157.333 43 284.666 129 381.999
c42.667 47.333 96.5 83.333 161.5 108s141.5 37 229.5 37zM580.001 844c-97.333 0 -172.167 -30.168 -224.5 -90.501s-78.5 -146.833 -78.5 -259.5c0 -106.667 21.333 -186.667 64 -240c54 -67.333 132.333 -101 235 -101c206 0 309 112 309 336
c0 114 -26.333 201.333 -79 262c-26 30.667 -57.833 53.834 -95.5 69.501s-81.167 23.5 -130.5 23.5zM581 1285l-139 -165h-175l222 259h184l222 -259h-175z" />
    <glyph glyph-name="otilde" unicode="&#xf5;" horiz-adv-x="1162" 
d="M592 1008c159.333 0 283.667 -46 373 -138c83.333 -86.667 125 -212 125 -376c0 -153.333 -42.333 -274.666 -127 -363.999c-90 -94 -217.333 -141 -382 -141c-172.667 0 -304 48 -394 144c-76.667 82 -115 198 -115 348c0 157.333 43 284.666 129 381.999
c42.667 47.333 96.5 83.333 161.5 108s141.5 37 229.5 37zM580.001 844c-97.333 0 -172.167 -30.168 -224.5 -90.501s-78.5 -146.833 -78.5 -259.5c0 -106.667 21.333 -186.667 64 -240c54 -67.333 132.333 -101 235 -101c206 0 309 112 309 336
c0 114 -26.333 201.333 -79 262c-26 30.667 -57.833 53.834 -95.5 69.501s-81.167 23.5 -130.5 23.5zM919 1348c-9.33301 -71.333 -28.8359 -125.5 -58.5029 -162.5s-68.167 -55.5 -115.5 -55.5c-41.333 0 -99.666 17.667 -174.999 53
c-23.333 10.667 -43.666 18.667 -60.999 24s-32.666 8 -45.999 8c-42 0 -68 -27 -78 -81h-115c18 145.333 78.667 218 182 218c20 0 42.167 -3.33301 66.5 -10s53.5 -18 87.5 -34l48 -22c12 -5.33301 23.667 -9.83301 35 -13.5s25 -5.5 41 -5.5c37.333 0 62 27 74 81h115z
" />
    <glyph glyph-name="odieresis" unicode="&#xf6;" horiz-adv-x="1162" 
d="M592 1008c159.333 0 283.667 -46 373 -138c83.333 -86.667 125 -212 125 -376c0 -153.333 -42.333 -274.666 -127 -363.999c-90 -94 -217.333 -141 -382 -141c-172.667 0 -304 48 -394 144c-76.667 82 -115 198 -115 348c0 157.333 43 284.666 129 381.999
c42.667 47.333 96.5 83.333 161.5 108s141.5 37 229.5 37zM580.001 844c-97.333 0 -172.167 -30.168 -224.5 -90.501s-78.5 -146.833 -78.5 -259.5c0 -106.667 21.333 -186.667 64 -240c54 -67.333 132.333 -101 235 -101c206 0 309 112 309 336
c0 114 -26.333 201.333 -79 262c-26 30.667 -57.833 53.834 -95.5 69.501s-81.167 23.5 -130.5 23.5zM865 1345v-212h-193v212h193zM490 1345v-212h-193v212h193z" />
    <glyph glyph-name="divide" unicode="&#xf7;" horiz-adv-x="1126" 
d="M564 1182c32 0 60 -12 84 -36s36 -52.667 36 -86c0 -32 -12 -60.667 -36 -86c-24.667 -23.333 -53.334 -35 -86.001 -35s-61 11.833 -85 35.5s-36 52.167 -36 85.5c0 34 11.833 62.833 35.5 86.5s52.834 35.5 87.501 35.5zM564 457c32 0 59.999 -12 83.999 -36
s36 -52.667 36 -86c0 -32 -11.833 -60.167 -35.5 -84.5s-52.5 -36.5 -86.5 -36.5c-32.667 0 -61 11.833 -85 35.5s-36 52.167 -36 85.5c0 34 11.833 62.833 35.5 86.5s52.834 35.5 87.501 35.5zM67.999 785h990v-173h-990v173z" />
    <glyph glyph-name="oslash" unicode="&#xf8;" horiz-adv-x="1162" 
d="M894 929l74.001 79h183l-159 -169c64.667 -90.667 97 -206 97 -346c0 -152.667 -42.333 -273.667 -127 -363c-90 -94 -217 -141 -381 -141c-120 0 -224.667 26 -314 78l-74 -78h-183l157 166c-64 86 -96 193.333 -96 322c0 40.667 3 80 9 118s15.333 75 28 111
c24.667 70 59.667 127.667 105 173c87.333 86 213.666 129 378.999 129c122 0 222.667 -26.333 302 -79zM760.001 793c-49.333 34 -110 51 -182 51c-96.667 0 -171.167 -30.167 -223.5 -90.5s-78.5 -147.833 -78.5 -262.5c0 -74 12 -138 36 -192zM845.001 690l-443.999 -492
c49.333 -30 107.666 -45 174.999 -45c205.333 0 308 112 308 336c0 76 -13 143 -39 201z" />
    <glyph glyph-name="ugrave" unicode="&#xf9;" horiz-adv-x="1130" 
d="M791 157v840h198v-997h-435c-67.333 0 -117.833 2 -151.5 6s-65.5 12.667 -95.5 26c-64 26 -109.833 68.167 -137.5 126.5s-41.5 141.5 -41.5 249.5v589h198v-582c0 -87.333 9.66699 -147.333 29 -180c31.333 -52 103.333 -78 216 -78h220zM702 1120h-152l-244 259h205z
" />
    <glyph glyph-name="uacute" unicode="&#xfa;" horiz-adv-x="1130" 
d="M791 157v840h198v-997h-435c-67.333 0 -117.833 2 -151.5 6s-65.5 12.667 -95.5 26c-64 26 -109.833 68.167 -137.5 126.5s-41.5 141.5 -41.5 249.5v589h198v-582c0 -87.333 9.66699 -147.333 29 -180c31.333 -52 103.333 -78 216 -78h220zM429 1120l191 259h205
l-244 -259h-152z" />
    <glyph glyph-name="ucircumflex" unicode="&#xfb;" horiz-adv-x="1130" 
d="M791 157v840h198v-997h-435c-67.333 0 -117.833 2 -151.5 6s-65.5 12.667 -95.5 26c-64 26 -109.833 68.167 -137.5 126.5s-41.5 141.5 -41.5 249.5v589h198v-582c0 -87.333 9.66699 -147.333 29 -180c31.333 -52 103.333 -78 216 -78h220zM558 1285l-139 -165h-175
l222 259h184l222 -259h-175z" />
    <glyph glyph-name="udieresis" unicode="&#xfc;" horiz-adv-x="1130" 
d="M791 157v840h198v-997h-435c-67.333 0 -117.833 2 -151.5 6s-65.5 12.667 -95.5 26c-64 26 -109.833 68.167 -137.5 126.5s-41.5 141.5 -41.5 249.5v589h198v-582c0 -87.333 9.66699 -147.333 29 -180c31.333 -52 103.333 -78 216 -78h220zM843 1345v-212h-193v212h193z
M468 1345v-212h-193v212h193z" />
    <glyph glyph-name="yacute" unicode="&#xfd;" horiz-adv-x="482" 
d="M142 997h198v-997h-198v997z" />
    <glyph glyph-name="thorn" unicode="&#xfe;" horiz-adv-x="1078" 
d="M547 0l0.00390625 -82.002h15h4c24 0 44.167 -2.5 60.5 -7.5s31.166 -13.833 44.499 -26.5c26 -24 39 -58.333 39 -103c0 -52 -16.833 -90.333 -50.5 -115s-85.834 -37 -156.501 -37h-104v88h98c62.667 0 94 19.667 94 59c0 36 -31.333 54 -94 54h-47v170h-356v157h479
c92.667 0 149 4.33301 169 13c32.667 14 49 51.333 49 112c0 63.333 -20.333 100.333 -61 111c-8.66699 2 -24.834 3.66699 -48.501 5s-55.5 2 -95.5 2h-82c-106 0 -178 3 -216 9s-71 21 -99 45c-70.667 57.333 -106 140 -106 248c0 58.667 11.5 110.334 34.5 155.001
s55.167 78 96.5 100c51.333 26.667 131 40 239 40h501v-157h-450c-34 0 -62 -0.333008 -84 -1s-38.333 -2 -49 -4c-20.667 -2 -36.667 -9.66699 -48 -23c-23.333 -23.333 -35 -61 -35 -113c0 -49.333 12.5 -81.833 37.5 -97.5s78.167 -23.5 159.5 -23.5h136
c50 0 93 -0.666992 129 -2s60.667 -2.66602 74 -3.99902c12 0 24 -2.16699 36 -6.5s24 -10.5 36 -18.5c66.667 -41.333 100 -124.333 100 -249c0 -136 -42.667 -225.667 -128 -269c-24 -12 -51.667 -20 -83 -24c-34.667 -3.33301 -89.334 -5 -164.001 -5h-74z" />
    <glyph glyph-name="ydieresis" unicode="&#xff;" horiz-adv-x="1130" 
d="M790 157l0.00292969 840h198v-833c0 -109.333 -2.83301 -188.5 -8.5 -237.5s-16.5 -87.5 -32.5 -115.5c-28 -50 -68 -83.833 -120 -101.5s-138.667 -26.5 -260 -26.5h-439v157h428h26h20h17h13c32 0 53 1.66699 63 5c20.667 2 38.667 10.667 54 26
c27.333 24 41 67 41 129h-274c-34.667 0 -62.834 0.666992 -84.501 2s-41.834 4 -60.501 8c-32.667 6 -66.334 19.667 -101.001 41c-58 34 -96.167 76.5 -114.5 127.5s-27.5 141.167 -27.5 270.5v548h198v-603c0 -42 1.66699 -73.5 5 -94.5s7.33301 -37.167 12 -48.5
c2.66699 -6.66699 6.66699 -14 12 -22c14.667 -25.333 36.667 -44 66 -56c30 -10.667 70 -16 120 -16h249zM842.003 1345v-212h-193v212h193zM467.003 1345v-212h-193v212h193z" />
    <glyph glyph-name="Cacute" unicode="&#x106;" horiz-adv-x="1239" 
d="M619 1481l191 246h219l-258 -246h-152zM1169 174l0.000976562 -174h-424c-120.667 0 -217 10 -289 30c-141.333 40 -246 134 -314 282c-48.667 107.333 -73 227.666 -73 360.999c0 158.667 33 299 99 421c54 99.333 122.833 169.333 206.5 210s203.167 61 358.5 61h436
v-174h-424c-93.333 0 -163.333 -7.16699 -210 -21.5s-86.334 -40.833 -119.001 -79.5c-35.333 -41.333 -63.333 -99.666 -84 -174.999s-31 -158 -31 -248c0 -168 39.333 -296.667 118 -386c36 -40.667 78.833 -68.667 128.5 -84s121.5 -23 215.5 -23h406z" />
    <glyph glyph-name="cacute" unicode="&#x107;" horiz-adv-x="963" 
d="M459 1120l191 259h205l-244 -259h-152zM894 997v-156.999h-317c-63.333 0 -113.5 -7.16699 -150.5 -21.5s-67.5 -38.5 -91.5 -72.5c-38.667 -56.667 -58 -139.667 -58 -249c0 -130.667 27.667 -223.667 83 -279c40.667 -40.667 113 -61 217 -61h317v-157h-317
c-104 0 -185 9 -243 27c-94.667 28.667 -166 98.334 -214 209.001c-32 75.333 -48 156.666 -48 243.999c0 161.333 43.667 289.666 131 384.999c44 48 94.167 82 150.5 102s130.833 30 223.5 30h317z" />
    <glyph glyph-name="Ccaron" unicode="&#x10c;" horiz-adv-x="1239" 
d="M756 1579l143 148h178l-229 -246h-184l-229 246h177zM1169 174l0.000976562 -174h-424c-120.667 0 -217 10 -289 30c-141.333 40 -246 134 -314 282c-48.667 107.333 -73 227.666 -73 360.999c0 158.667 33 299 99 421c54 99.333 122.833 169.333 206.5 210
s203.167 61 358.5 61h436v-174h-424c-93.333 0 -163.333 -7.16699 -210 -21.5s-86.334 -40.833 -119.001 -79.5c-35.333 -41.333 -63.333 -99.666 -84 -174.999s-31 -158 -31 -248c0 -168 39.333 -296.667 118 -386c36 -40.667 78.833 -68.667 128.5 -84
s121.5 -23 215.5 -23h406z" />
    <glyph glyph-name="ccaron" unicode="&#x10d;" horiz-adv-x="963" 
d="M580 1214l139 165h175l-222 -259h-184l-222 259h175zM894 997v-156.999h-317c-63.333 0 -113.5 -7.16699 -150.5 -21.5s-67.5 -38.5 -91.5 -72.5c-38.667 -56.667 -58 -139.667 -58 -249c0 -130.667 27.667 -223.667 83 -279c40.667 -40.667 113 -61 217 -61h317v-157
h-317c-104 0 -185 9 -243 27c-94.667 28.667 -166 98.334 -214 209.001c-32 75.333 -48 156.666 -48 243.999c0 161.333 43.667 289.666 131 384.999c44 48 94.167 82 150.5 102s130.833 30 223.5 30h317z" />
    <glyph glyph-name="dcroat" unicode="&#x111;" horiz-adv-x="1142" 
d="M1000 1365l-0.000976562 -108h132v-143h-132v-1114h-443c-88.667 0 -158.667 6.66699 -210 20s-95 36 -131 68c-43.333 37.333 -78.166 91.333 -104.499 162s-39.5 147 -39.5 229c0 104.667 19.333 200 58 286c36 81.333 89.333 140.333 160 177s165 55 283 55h229v117
h-321v143h321v108h198zM801.999 157v683h-213c-66.667 0 -119.167 -7.5 -157.5 -22.5s-70.5 -41.167 -96.5 -78.5c-38.667 -56.667 -58 -136 -58 -238c0 -126 21 -214.833 63 -266.5s114 -77.5 216 -77.5h246z" />
    <glyph glyph-name="Gbreve" unicode="&#x11e;" horiz-adv-x="1358" 
d="M481 1727h126.001c20 -74 76 -111 168 -111c90 0 145.667 37 167 111h126c0 -27.333 -4 -52 -12 -74s-20 -43.667 -36 -65c-52.667 -72.667 -135.334 -109 -248.001 -109c-85.333 0 -153.333 21.667 -204 65s-79.667 104.333 -87 183zM608.001 783l639.001 0.000976562
v-783h-505c-69.333 0 -129.333 2.66699 -180 8s-95 14 -133 26c-92 28 -170.333 83.667 -235 167c-83.333 107.333 -125 265.666 -125 474.999c0 300 83.667 501.333 251 604c52 31.333 110 53.333 174 66c32 6 69.5 10.667 112.5 14s91.5 5 145.5 5h495v-174h-478
c-46.667 0 -84.334 -0.666992 -113.001 -2s-56.667 -4.5 -84 -9.5s-59.666 -18.5 -96.999 -40.5c-116 -71.333 -174 -220 -174 -446c0 -88 6 -159.5 18 -214.5s33 -106.167 63 -153.5c38 -58.667 83.667 -98.667 137 -120c26.667 -10 60.667 -17.667 102 -23
s90.666 -8 147.999 -8h260v435h-421v174z" />
    <glyph glyph-name="gbreve" unicode="&#x11f;" horiz-adv-x="1152" 
d="M340 1379h126.001c18 -86.667 71.333 -130 160 -130c87.333 0 141 43.333 161 130h126c0 -27.333 -4.16699 -53.5 -12.5 -78.5s-19.5 -47.833 -33.5 -68.5c-52.667 -76.667 -132.334 -115 -239.001 -115c-85.333 0 -153 22.667 -203 68c-26.667 24.667 -47 52 -61 82
c-16 34 -24 71.333 -24 112zM1011 997l-0.000976562 -883.999c0 -132 -3 -215 -9 -249c-4 -33.333 -18 -64 -42 -92c-28.667 -33.333 -68.667 -56.333 -120 -69c-25.333 -6.66699 -56.5 -11.667 -93.5 -15s-82.5 -5 -136.5 -5h-426v157h456c56.667 0 95.167 2.66699 115.5 8
s35.5 17.333 45.5 36c8 19.333 12 58 12 116h-214c-101.333 0 -170.833 3.16699 -208.5 9.5s-77.5 22.5 -119.5 48.5c-130 76 -195 215.333 -195 418c0 167.333 42.333 298.666 127 393.999c42 48 92.333 81.167 151 99.5s140.334 27.5 245.001 27.5h412zM813 840.001
l-199.001 0.00292969c-85.333 0 -144.666 -6.66699 -177.999 -20c-62 -24 -105.333 -78.667 -130 -164c-16.667 -60.667 -25 -120.334 -25 -179.001c0 -100.667 23.333 -181.334 70 -242.001c22 -28.667 49.833 -48.834 83.5 -60.501s82.167 -17.5 145.5 -17.5h233v683z" />
    <glyph glyph-name="c291" unicode="&#x123;" 
 />
    <glyph glyph-name="c292" unicode="&#x124;" 
 />
    <glyph glyph-name="c293" unicode="&#x125;" 
 />
    <glyph glyph-name="c294" unicode="&#x126;" 
 />
    <glyph glyph-name="c295" unicode="&#x127;" 
 />
    <glyph glyph-name="c296" unicode="&#x128;" 
 />
    <glyph glyph-name="c297" unicode="&#x129;" 
 />
    <glyph glyph-name="c298" unicode="&#x12a;" 
 />
    <glyph glyph-name="c299" unicode="&#x12b;" 
 />
    <glyph glyph-name="c300" unicode="&#x12c;" 
 />
    <glyph glyph-name="c301" unicode="&#x12d;" 
 />
    <glyph glyph-name="c302" unicode="&#x12e;" 
 />
    <glyph glyph-name="c303" unicode="&#x12f;" 
 />
    <glyph glyph-name="glyph241" unicode="&#x130;" 
d="M354 1700v-212h-196v212h196zM147 0v1365h218v-1365h-218z" />
    <glyph glyph-name="glyph220" unicode="&#x131;" horiz-adv-x="482" 
d="M142 997h198v-997h-198v997z" />
    <glyph glyph-name="c306" unicode="&#x132;" 
 />
    <glyph glyph-name="c307" unicode="&#x133;" 
 />
    <glyph glyph-name="c308" unicode="&#x134;" 
 />
    <glyph glyph-name="c309" unicode="&#x135;" 
 />
    <glyph glyph-name="c310" unicode="&#x136;" 
 />
    <glyph glyph-name="c311" unicode="&#x137;" 
 />
    <glyph glyph-name="c312" unicode="&#x138;" 
 />
    <glyph glyph-name="c313" unicode="&#x139;" 
 />
    <glyph glyph-name="c314" unicode="&#x13a;" 
 />
    <glyph glyph-name="c315" unicode="&#x13b;" 
 />
    <glyph glyph-name="c316" unicode="&#x13c;" 
 />
    <glyph glyph-name="c317" unicode="&#x13d;" 
 />
    <glyph glyph-name="c318" unicode="&#x13e;" 
 />
    <glyph glyph-name="c319" unicode="&#x13f;" 
 />
    <glyph glyph-name="c320" unicode="&#x140;" 
 />
    <glyph glyph-name="glyph224" unicode="&#x141;" horiz-adv-x="1025" 
d="M362 1365v-527.999l283 143v-176l-283 -143v-90c0 -44.667 1 -82.5 3 -113.5s5.66699 -58.833 11 -83.5c10 -45.333 26.667 -81 50 -107c61.333 -62 159.666 -93 294.999 -93h293v-174h-336c-104.667 0 -188.667 10 -252 30s-118.666 54.667 -165.999 104
c-42 44 -71.833 97.167 -89.5 159.5s-26.5 146.166 -26.5 251.499v33l-137 -68v176l137 68v611h218z" />
    <glyph glyph-name="glyph225" unicode="&#x142;" horiz-adv-x="482" 
d="M340 1365v-537l133 73v-162l-133 -72v-667h-198v593l-132 -73v162l132 73v610h198z" />
    <glyph glyph-name="middot" unicode="&#x143;" horiz-adv-x="425" 
d="M315 667v-222h-205v222h205z" />
    <glyph glyph-name="c324" unicode="&#x144;" horiz-adv-x="1024" 
d="M610 1700v-212h-196v212h196z" />
    <glyph glyph-name="c325" unicode="&#x145;" horiz-adv-x="1024" 
d="M806 1700v-212h-196v212h196zM415 1700v-212h-196v212h196z" />
    <glyph glyph-name="c326" unicode="&#x146;" horiz-adv-x="1024" 
d="M744 1700v-212h-189v212h189zM469 1700v-212h-189v212h189z" />
    <glyph glyph-name="c327" unicode="&#x147;" horiz-adv-x="1024" 
d="M512 1579l143 148h178l-229 -246h-184l-229 246h177z" />
    <glyph glyph-name="c328" unicode="&#x148;" horiz-adv-x="1024" 
d="M512 1629l-144 -148h-177l229 246h184l229 -246h-178z" />
    <glyph glyph-name="c329" unicode="&#x149;" horiz-adv-x="1024" 
d="M615 1481h-153l-257 246h219z" />
    <glyph glyph-name="c330" unicode="&#x14a;" horiz-adv-x="1024" 
d="M410 1481l191 246h219l-258 -246h-152z" />
    <glyph glyph-name="c331" unicode="&#x14b;" horiz-adv-x="1024" 
d="M742 1345v-212h-186v212h186zM469 1345v-212h-186v212h186z" />
    <glyph glyph-name="c332" unicode="&#x14c;" horiz-adv-x="1024" 
d="M218 1727h126.001c20 -74 76 -111 168 -111c90 0 145.667 37 167 111h126c0 -27.333 -4 -52 -12 -74s-20 -43.667 -36 -65c-52.667 -72.667 -135.334 -109 -248.001 -109c-85.333 0 -153.333 21.667 -204 65s-79.667 104.333 -87 183z" />
    <glyph glyph-name="c333" unicode="&#x14d;" horiz-adv-x="1024" 
d="M846 1706c-10 -71.333 -30.5 -125.5 -61.5 -162.5s-71.833 -55.5 -122.5 -55.5c-41.333 0 -99.666 17.667 -174.999 53c-46 21.333 -82 32 -108 32c-46.667 0 -75.667 -27 -87 -81h-115c20 145.333 84 218 192 218c20 0 42.167 -3.33301 66.5 -10s53.5 -18 87.5 -34
l80 -35c13.333 -4 28.666 -6 45.999 -6c42.667 0 70 27 82 81h115z" />
    <glyph glyph-name="c334" unicode="&#x14e;" 
 />
    <glyph glyph-name="OE" unicode="&#x152;" horiz-adv-x="2298" 
d="M1264 204c-46 -50 -90 -89.6709 -132 -119.004c-106 -70 -243.333 -105 -412 -105c-233.333 0 -403.333 66.333 -510 199c-42 52 -76 123.833 -102 215.5s-39 186.834 -39 285.501c0 102 13.167 197.333 39.5 286s63.5 160.334 111.5 215.001
c116 136 289.667 204 521 204c256 0 436 -78.333 540 -235c58 82 126 138.333 204 169s189 46 333 46h385v-174h-398c-72 0 -128.5 -5 -169.5 -15s-77.5 -27.667 -109.5 -53c-44.667 -35.333 -77.667 -80 -99 -134c-12 -31.333 -21.667 -64.166 -29 -98.499
s-11 -72.833 -11 -115.5h816v-174h-816c0 -50.667 5.16699 -98 15.5 -142s26.833 -85.667 49.5 -125c34 -58 76.5 -99.167 127.5 -123.5s122.5 -36.5 214.5 -36.5h409v-174h-449c-123.333 0 -221.333 14.833 -294 44.5s-138 82.834 -196 159.501zM738 1211
c-188 0 -314.333 -65.667 -379 -197c-38.667 -80.667 -58 -190.334 -58 -329.001c0 -169.333 28.333 -296.666 85 -381.999c66 -99.333 182.333 -149 349 -149c188 0 313 66.667 375 200c33.333 72.667 50 179 50 319c0 172.667 -24.667 298 -74 376
c-33.333 54 -78.833 94.5 -136.5 121.5s-128.167 40.5 -211.5 40.5z" />
    <glyph glyph-name="oe" unicode="&#x153;" horiz-adv-x="1780" 
d="M971 139c-91.333 -100 -221.003 -150.003 -389.003 -150.003c-172 0 -301.667 46.667 -389 140c-80.667 86.667 -121 201.334 -121 344.001c0 176 47.333 311.333 142 406c86 86 212.333 129 379 129c178.667 0 311.334 -55.667 398.001 -167
c49.333 56.667 105 96.834 167 120.501s142.333 35.5 241 35.5h287v-157h-258c-69.333 0 -123 -5.16699 -161 -15.5s-70.667 -29.166 -98 -56.499c-41.333 -40 -68.333 -99.333 -81 -178h598v-157h-598c0 -91.333 23 -161.333 69 -210c24 -24 53.833 -41 89.5 -51
s86.5 -15 152.5 -15h287v-157h-341c-99.333 0 -177.166 10.667 -233.499 32s-103.166 57 -140.499 107zM580.997 843.997c-98 0 -173.167 -30.168 -225.5 -90.501s-78.5 -148.166 -78.5 -263.499c0 -104.667 21.333 -183.667 64 -237c54.667 -66.667 133 -100 235 -100
c206.667 0 310 111 310 333c0 114 -26.333 202.167 -79 264.5s-128 93.5 -226 93.5z" />
    <glyph glyph-name="Scedilla" unicode="&#x15e;" horiz-adv-x="1304" 
d="M644 0l-0.000976562 -89h16c10.667 0.666992 25.334 -0.333008 44.001 -3c19.333 -4 33.333 -8.33301 42 -13c45.333 -22 68 -65 68 -129c0 -54.667 -17.167 -95 -51.5 -121s-88.833 -39 -163.5 -39h-109v95h103c64.667 0 97 19.667 97 59c0 37.333 -32.333 56 -97 56
h-49v184h-448v174h590c90.667 0 155.667 11.333 195 34c60 34 90 93 90 177c0 105.333 -39 171 -117 197c-35.333 11.333 -105 17 -209 17h-114c-157.333 0 -270 21.667 -338 65c-97.333 61.333 -146 158.333 -146 291c0 87.333 22 164.333 66 231
s100.667 113.167 170 139.5s167 39.5 293 39.5h562v-174h-562c-59.333 0 -105 -3 -137 -9c-30.667 -4.66699 -58 -14.667 -82 -30c-52 -34 -78 -89.333 -78 -166c0 -68 23 -116.667 69 -146s122 -44 228 -44h82c118 0 205.333 -5.16699 262 -15.5s103.667 -29.833 141 -58.5
c42.667 -33.333 77 -79.333 103 -138s39 -122.667 39 -192c0 -162 -62.667 -275.333 -188 -340c-68 -34.667 -169 -52 -303 -52h-68z" />
    <glyph glyph-name="scedilla" unicode="&#x15f;" horiz-adv-x="1078" 
d="M547 0l0.00390625 -82.002h15h4c24 0 44.167 -2.5 60.5 -7.5s31.166 -13.833 44.499 -26.5c26 -24 39 -58.333 39 -103c0 -52 -16.833 -90.333 -50.5 -115s-85.834 -37 -156.501 -37h-104v88h98c62.667 0 94 19.667 94 59c0 36 -31.333 54 -94 54h-47v170h-356v157h479
c92.667 0 149 4.33301 169 13c32.667 14 49 51.333 49 112c0 63.333 -20.333 100.333 -61 111c-8.66699 2 -24.834 3.66699 -48.501 5s-55.5 2 -95.5 2h-82c-106 0 -178 3 -216 9s-71 21 -99 45c-70.667 57.333 -106 140 -106 248c0 58.667 11.5 110.334 34.5 155.001
s55.167 78 96.5 100c51.333 26.667 131 40 239 40h501v-157h-450c-34 0 -62 -0.333008 -84 -1s-38.333 -2 -49 -4c-20.667 -2 -36.667 -9.66699 -48 -23c-23.333 -23.333 -35 -61 -35 -113c0 -49.333 12.5 -81.833 37.5 -97.5s78.167 -23.5 159.5 -23.5h136
c50 0 93 -0.666992 129 -2s60.667 -2.66602 74 -3.99902c12 0 24 -2.16699 36 -6.5s24 -10.5 36 -18.5c66.667 -41.333 100 -124.333 100 -249c0 -136 -42.667 -225.667 -128 -269c-24 -12 -51.667 -20 -83 -24c-34.667 -3.33301 -89.334 -5 -164.001 -5h-74z" />
    <glyph glyph-name="Scaron" unicode="&#x160;" horiz-adv-x="1304" 
d="M123 0l0.000976562 173.998h590c90.667 0 155.667 11.333 195 34c60 34 90 93 90 177c0 105.333 -39 171 -117 197c-35.333 11.333 -105 17 -209 17h-114c-157.333 0 -270 21.667 -338 65c-97.333 61.333 -146 158.333 -146 291c0 87.333 22 164.333 66 231
s100.833 113.167 170.5 139.5s167.167 39.5 292.5 39.5h562v-174h-562c-58 0 -103 -2.66699 -135 -8s-60 -15.666 -84 -30.999c-52 -33.333 -78 -88.666 -78 -165.999c0 -68 23 -116.667 69 -146s122 -44 228 -44h82c118 0 205.333 -5.16699 262 -15.5
s103.667 -29.833 141 -58.5c42.667 -33.333 77 -79.333 103 -138s39 -122.667 39 -192c0 -160.667 -63 -274 -189 -340c-37.333 -19.333 -81.833 -32.833 -133.5 -40.5s-125.834 -11.5 -222.501 -11.5h-562zM694.001 1579l143 148h178l-229 -246h-184l-229 246h177z" />
    <glyph glyph-name="scaron" unicode="&#x161;" horiz-adv-x="1078" 
d="M954 997l-0.00292969 -157.003h-449c-33.333 0 -61.166 -0.333008 -83.499 -1s-39.166 -2 -50.499 -4c-20.667 -2 -36.667 -9.66699 -48 -23c-23.333 -23.333 -35 -61 -35 -113c0 -49.333 12.5 -81.833 37.5 -97.5s78.5 -23.5 160.5 -23.5h135c50 0 93 -0.666992 129 -2
s60.667 -2.66602 74 -3.99902c12 0 24 -2.16699 36 -6.5s24 -10.5 36 -18.5c66.667 -41.333 100 -124.333 100 -249c0 -136 -42.667 -225.667 -128 -269c-23.333 -12 -50.666 -20 -81.999 -24c-34.667 -3.33301 -89.667 -5 -165 -5h-527v157h479
c92.667 0 149 4.33301 169 13c32.667 14 49 51.333 49 112c0 64 -20.333 101 -61 111c-18.667 4.66699 -66.667 7 -144 7h-81c-105.333 0 -177.333 3 -216 9s-72 21 -100 45c-70.667 56.667 -106 139.334 -106 248.001c0 58.667 11.5 110.334 34.5 155.001
s55.167 78 96.5 100c51.333 26.667 131 40 239 40h501zM559.997 1214l139 165h175l-222 -259h-184l-222 259h175z" />
    <glyph glyph-name="Ydieresis" unicode="&#x178;" horiz-adv-x="1323" 
d="M552 549l-546 816h253l408 -645l397 645h253l-547 -816v-549h-218v549zM955 1700v-212h-196v212h196zM564 1700v-212h-196v212h196z" />
    <glyph glyph-name="Zcaron" unicode="&#x17d;" horiz-adv-x="1300" 
d="M990 1191h-910v174h1139v-217l-899 -974h899v-174h-1139v217zM650 1579l143 148h178l-229 -246h-184l-229 246h177z" />
    <glyph glyph-name="zcaron" unicode="&#x17e;" horiz-adv-x="990" 
d="M725 840h-659v157h845v-216l-665 -624h665v-157h-845v215zM489 1214l139 165h175l-222 -259h-184l-222 259h175z" />
    <glyph glyph-name="florin" unicode="&#x192;" horiz-adv-x="1167" 
d="M475 747l-244.002 -0.000976562l24 137h244l27 157c20 113.333 60 196 120 248c30.667 25.333 67.334 44.333 110.001 57s93.334 19 152.001 19h232l-31 -174h-185c-60.667 0 -103.167 -10.167 -127.5 -30.5s-41.833 -62.166 -52.5 -125.499l-27 -151h308l-24 -137h-308
l-115 -655c-16 -90 -35.167 -159.167 -57.5 -207.5s-51.833 -86.166 -88.5 -113.499c-30 -22 -67 -37.167 -111 -45.5s-106.667 -12.5 -188 -12.5h-167l31 174h152c50 0 86.667 4.16699 110 12.5s41.333 24.166 54 47.499c16 24 35 94 57 210z" />
    <glyph glyph-name="circumflex" unicode="&#x2c6;" horiz-adv-x="1024" 
d="M512 1285l-139 -165h-175l222 259h184l222 -259h-175z" />
    <glyph glyph-name="caron" unicode="&#x2c7;" horiz-adv-x="1024" 
d="M512 1214l139 165h175l-222 -259h-184l-222 259h175z" />
    <glyph glyph-name="macron" unicode="&#x2c9;" horiz-adv-x="1024" 
d="M826 1290v-123h-628v123h628z" />
    <glyph glyph-name="breve" unicode="&#x2d8;" horiz-adv-x="1024" 
d="M225 1379h126.001c18 -86.667 71.333 -130 160 -130c87.333 0 141 43.333 161 130h126c0 -27.333 -4.16699 -53.5 -12.5 -78.5s-19.5 -47.833 -33.5 -68.5c-52.667 -76.667 -132.334 -115 -239.001 -115c-85.333 0 -153 22.667 -203 68c-26.667 24.667 -47 52 -61 82
c-16 34 -24 71.333 -24 112z" />
    <glyph glyph-name="dotaccent" unicode="&#x2d9;" horiz-adv-x="1024" 
d="M609 1345v-212h-193v212h193z" />
    <glyph glyph-name="ring" unicode="&#x2da;" horiz-adv-x="1024" 
d="M515 1478c53.333 0 100 -21.333 140 -64c33.333 -36.667 50 -79.667 50 -129c0 -56.667 -21.333 -104.334 -64 -143.001c-36.667 -33.333 -79.667 -50 -129 -50c-55.333 0 -103 21.333 -143 64c-33.333 36.667 -50 80.334 -50 131.001c0 55.333 21.333 102.333 64 141
c36.667 33.333 80.667 50 132 50zM513 1375c-25.333 0 -46.833 -8.66895 -64.5 -26.002s-26.5 -38.333 -26.5 -63c0 -25.333 8.66699 -46.833 26 -64.5s38.666 -26.5 63.999 -26.5c24.667 0 45.834 8.83301 63.501 26.5s26.5 38.834 26.5 63.501s-8.5 45.834 -25.5 63.501
s-38.167 26.5 -63.5 26.5z" />
    <glyph glyph-name="ogonek" unicode="&#x2db;" horiz-adv-x="1024" 
d="M969 0c-69.333 -37.333 -103.999 -85.999 -103.999 -145.999c0 -54.667 27.333 -82 82 -82c27.333 0 57.666 7.66699 90.999 23v-97c-40.667 -17.333 -82.667 -26 -126 -26c-55.333 0 -98.5 13.667 -129.5 41s-46.5 65.666 -46.5 114.999c0 78 37.667 135.333 113 172
h120z" />
    <glyph glyph-name="tilde" unicode="&#x2dc;" horiz-adv-x="1024" 
d="M837 1348c-9.33301 -71.333 -28.8359 -125.5 -58.5029 -162.5s-68.167 -55.5 -115.5 -55.5c-41.333 0 -99.666 17.667 -174.999 53c-23.333 10.667 -43.666 18.667 -60.999 24s-32.666 8 -45.999 8c-42 0 -68 -27 -78 -81h-115c18 145.333 78.667 218 182 218
c20 0 42.167 -3.33301 66.5 -10s53.5 -18 87.5 -34l48 -22c12 -5.33301 23.667 -9.83301 35 -13.5s25 -5.5 41 -5.5c37.333 0 62 27 74 81h115z" />
    <glyph glyph-name="pi" unicode="&#x3c0;" horiz-adv-x="1293" 
d="M224 0v786h-155v196h1155v-196h-153v-786h-218v786h-411v-786h-218z" />
    <glyph glyph-name="endash" unicode="&#x2013;" horiz-adv-x="1461" 
d="M1273 625v-148h-1085v148h1085z" />
    <glyph glyph-name="emdash" unicode="&#x2014;" horiz-adv-x="1883" 
d="M1694 625v-148h-1506v148h1506z" />
    <glyph glyph-name="quoteleft" unicode="&#x2018;" horiz-adv-x="439" 
d="M110 887v198l136 280h105l-105 -256h69v-222h-205z" />
    <glyph glyph-name="quoteright" unicode="&#x2019;" horiz-adv-x="439" 
d="M329 1365v-198l-136 -279h-105l105 255h-69v222h205z" />
    <glyph glyph-name="quotesinglbase" unicode="&#x201a;" horiz-adv-x="439" 
d="M329 222v-198l-136 -280h-105l105 256h-69v222h205z" />
    <glyph glyph-name="quotedblleft" unicode="&#x201c;" horiz-adv-x="783" 
d="M110 887v198l136 280h105l-105 -256h69v-222h-205zM453 887v198l136 280h105l-105 -256h69v-222h-205z" />
    <glyph glyph-name="quotedblright" unicode="&#x201d;" horiz-adv-x="783" 
d="M329 1365v-198l-136 -279h-105l105 255h-69v222h205zM672 1365v-198l-136 -279h-105l105 255h-69v222h205z" />
    <glyph glyph-name="quotedblbase" unicode="&#x201e;" horiz-adv-x="783" 
d="M329 222v-198l-136 -280h-105l105 256h-69v222h205zM672 222v-198l-136 -280h-105l105 256h-69v222h205z" />
    <glyph glyph-name="dagger" unicode="&#x2020;" horiz-adv-x="1109" 
d="M657 -317h-205v1080h-384v174h384v428h205v-428h383v-174h-383v-1080z" />
    <glyph glyph-name="daggerdbl" unicode="&#x2021;" horiz-adv-x="1109" 
d="M657 507h383v-174h-383v-650h-205v650h-384v174h384v256h-384v174h384v428h205v-428h383v-174h-383v-256z" />
    <glyph glyph-name="bullet" unicode="&#x2022;" horiz-adv-x="1365" 
d="M689 978c75.333 0 140.833 -27.667 196.5 -83s83.5 -122.333 83.5 -201s-27.667 -145.667 -83 -201s-122.333 -83 -201 -83c-77.333 0 -144 27.833 -200 83.5s-84 122.5 -84 200.5c0 79.333 28.5 146.5 85.5 201.5s124.5 82.5 202.5 82.5z" />
    <glyph glyph-name="ellipsis" unicode="&#x2026;" horiz-adv-x="1276" 
d="M315 222v-222h-205v222h205zM740 222v-222h-205v222h205zM1166 222v-222h-205v222h205z" />
    <glyph glyph-name="perthousand" unicode="&#x2030;" horiz-adv-x="2638" 
d="M460 1376c115.333 0 201 -28.332 257 -84.999c58.667 -60.667 88 -150.334 88 -269.001c0 -114.667 -28 -205 -84 -271s-145.333 -99 -268 -99c-132.667 0 -227.5 29.5 -284.5 88.5s-85.5 149.167 -85.5 270.5c0 123.333 30.667 215 92 275s156.333 90 285 90zM442 1257
c-69.333 0 -120.833 -18.833 -154.5 -56.5s-50.5 -96.167 -50.5 -175.5c0 -169.333 70 -254 210 -254c135.333 0 203 80.333 203 241c0 87.333 -16 150 -48 188s-85.333 57 -160 57zM1113 1393h141l-558 -1420h-140zM1380 713.001c116 0 202.5 -29.168 259.5 -87.501
s85.5 -147.166 85.5 -266.499c0 -114.667 -28 -205 -84 -271s-145 -99 -267 -99c-133.333 0 -228.333 29.5 -285 88.5s-85 149.167 -85 270.5c0 123.333 30.667 215 92 275s156 90 284 90zM1362 594c-69.333 0 -120.667 -19 -154 -57s-50 -96.333 -50 -175
c0 -169.333 70 -254 210 -254c134.667 0 202 80.333 202 241c0 88 -15.833 150.833 -47.5 188.5s-85.167 56.5 -160.5 56.5zM2210 713c115.333 0 201 -28.332 257 -84.999c58.667 -60.667 88 -150.334 88 -269.001c0 -114.667 -28 -205 -84 -271s-145.333 -99 -268 -99
c-132.667 0 -227.5 29.5 -284.5 88.5s-85.5 149.167 -85.5 270.5c0 123.333 30.667 215 92 275s156.333 90 285 90zM2192 594.001c-69.333 0 -120.833 -18.833 -154.5 -56.5s-50.5 -96.167 -50.5 -175.5c0 -169.333 70 -254 210 -254c135.333 0 203 80.333 203 241
c0 87.333 -16 150 -48 188s-85.333 57 -160 57z" />
    <glyph glyph-name="guilsinglleft" unicode="&#x2039;" horiz-adv-x="756" 
d="M473 847v-222l-100 -129l100 -123v-222l-227 259v172z" />
    <glyph glyph-name="guilsinglright" unicode="&#x203a;" horiz-adv-x="756" 
d="M283 847l227 -265v-172l-227 -259v222l100 123l-100 129v222z" />
    <glyph glyph-name="franc" unicode="&#x20a3;" horiz-adv-x="1734" 
d="M1037 775v-174.001h-689v-601h-218v824c0 82.667 3.66699 144.5 11 185.5s21 80.833 41 119.5c44 86.667 108.667 147.667 194 183c42.667 18 93.667 31.333 153 40s131 13 215 13h403v-174h-422c-104 0 -177.667 -10.667 -221 -32c-53.333 -24 -93 -60.667 -119 -110
c-11.333 -23.333 -20.333 -51.666 -27 -84.999s-10 -70.333 -10 -111v-78h689zM1147 774.999h218c124 0 209.5 -19.833 256.5 -59.5s70.5 -113.5 70.5 -221.5v-69h-168v69c0 54 -9.83301 90.5 -29.5 109.5s-57.167 28.5 -112.5 28.5h-58v-632h-177v775z" />
    <glyph glyph-name="trademark" unicode="&#x2122;" horiz-adv-x="1783" 
d="M280 1256h-283v109h712v-109h-284v-655h-145v655zM989 1365l263 -601l244 601h205v-764h-141v609l-243 -609h-140l-252 610v-610h-141v764h205z" />
    <glyph glyph-name="Omega" unicode="&#x2126;" horiz-adv-x="1365" 
d="M59 0v195.997h315c-86 52.667 -152.667 110 -200 172c-76.667 102.667 -115 229.334 -115 380.001c0 186.667 62.333 343.334 187 470.001c119.333 120 265.333 180 438 180c171.333 0 317 -60 437 -180c124 -125.333 186 -282 186 -470c0 -124 -24.667 -230 -74 -318
s-129 -166 -239 -234h313v-196h-544v175c84 46.667 148.667 98.334 194 155.001c84 105.333 126 236.333 126 393c0 131.333 -36.667 242 -110 332c-79.333 98 -175.333 147 -288 147c-101.333 0 -191 -39.333 -269 -118c-88.667 -90.667 -133 -212 -133 -364
c0 -244 107.667 -425.667 323 -545v-175h-547z" />
    <glyph glyph-name="partialdiff" unicode="&#x2202;" horiz-adv-x="1024" 
d="M147 1175l28.001 189.998c123.333 -14.667 230 -39.667 320 -75c118 -46 219 -120 303 -222c120 -146 180 -325.333 180 -538c0 -140.667 -30.333 -257.334 -91 -350.001c-42 -63.333 -96.667 -113 -164 -149c-64 -34 -134.667 -51 -212 -51
c-97.333 0 -185.333 27.333 -264 82c-50 34 -91.333 76.333 -124 127c-52 78 -78 163.667 -78 257c0 60.667 11.5 119.334 34.5 176.001s54.833 105.334 95.5 146.001c80.667 79.333 178.667 119 294 119c55.333 0 104.666 -9 147.999 -27c22 -9.33301 42.833 -21 62.5 -35
s39.834 -32 60.501 -54c-32 71.333 -66 129 -102 173c-32.667 40.667 -77.667 78.334 -135 113.001c-116.667 66 -235.334 105.333 -356.001 118zM515.001 725.998c-70.667 0 -130.334 -28.665 -179.001 -85.998c-46 -54 -69 -122 -69 -204c0 -88 27.667 -161.667 83 -221
c44 -47.333 97.667 -71 161 -71c70.667 0 129 29.5 175 88.5s69 129.167 69 210.5c0 93.333 -29 167.666 -87 222.999c-21.333 19.333 -44.666 34.166 -69.999 44.499s-53 15.5 -83 15.5z" />
    <glyph glyph-name="Delta" unicode="&#x2206;" horiz-adv-x="1365" 
d="M43 0l518 1365h236l526 -1365h-1280zM356 204h650l-326 895z" />
    <glyph glyph-name="product" unicode="&#x220f;" horiz-adv-x="1473" 
d="M79 1536h1315v-204h-169v-1640h169v-204h-552v204h165v1640h-543v-1640h165v-204h-550v204h167v1640h-167v204z" />
    <glyph glyph-name="summation" unicode="&#x2211;" horiz-adv-x="1365" 
d="M1251 1536v-496h-196l-23 292h-738l513 -783l-513 -857h758l12 288h206v-492h-1222v227l503 834l-503 761v226h1203z" />
    <glyph glyph-name="minus" unicode="&#x2212;" horiz-adv-x="1126" 
d="M68 785h990v-173h-990v173z" />
    <glyph glyph-name="fraction" unicode="&#x2215;" horiz-adv-x="249" 
d="M492 1393h146l-871 -1420h-146z" />
    <glyph glyph-name="periodcentered" unicode="&#x2219;" horiz-adv-x="425" 
d="M315 667v-222h-205v222h205z" />
    <glyph glyph-name="radical" unicode="&#x221a;" horiz-adv-x="1365" 
d="M1365 1701l0.000976562 -174h-372l-388 -1527h-284l-144 608h-177v174h364l52 -214c11.333 -52 24.666 -150 39.999 -294h18c14 108 30.333 210.333 49 307s43.667 207.667 75 333l198 787h569z" />
    <glyph glyph-name="infinity" unicode="&#x221e;" horiz-adv-x="1365" 
d="M687 554c-96 -122 -204.999 -182.999 -326.999 -182.999c-104 0 -187.333 36.333 -250 109c-50 57.333 -75 130 -75 218c0 102.667 34.667 183.667 104 243c62 54 136 81 222 81c58.667 0 115 -15.667 169 -47s103.333 -76 148 -134c89.333 120.667 198 181 326 181
c111.333 0 197.666 -39.667 258.999 -119c44 -56 66 -124.667 66 -206c0 -102.667 -34.333 -184.334 -103 -245.001c-60 -54 -133 -81 -219 -81c-122 0 -228.667 61 -320 183zM790.001 697.001c62 -94 124.332 -140.999 186.999 -140.999c38 0 70.333 13.667 97 41
s40 60.666 40 99.999s-13.167 72.5 -39.5 99.5s-59.166 40.5 -98.499 40.5c-50.667 0 -98 -26.333 -142 -79l-27 -36zM574 696.002c-60 94 -122.333 140.999 -187 140.999c-38 0 -70.333 -13.333 -97 -40s-40 -60 -40 -100c0 -45.333 17 -81.666 51 -108.999
c13.333 -10.667 27 -18.667 41 -24s29.667 -8 47 -8c50.667 0 97.667 26.667 141 80l27 35z" />
    <glyph glyph-name="integral" unicode="&#x222b;" horiz-adv-x="1024" 
d="M138 -491l42.001 195c43.333 -13.333 78.666 -20 105.999 -20c68 0 106 35.333 114 106c2 20 3 72 3 156v1090c0 34 0.333008 67.333 1 100s1.66699 67 3 103c0 21.333 1.16699 39 3.5 53s6.5 31 12.5 51c16 60 50.167 107.167 102.5 141.5s116.5 51.5 192.5 51.5
c46.667 0 102.667 -7.33301 168 -22l-42 -194c-42 13.333 -77 20 -105 20c-68 0 -106.333 -35.333 -115 -106l-3 -264v-983c0 -135.333 -3.33301 -224.5 -10 -267.5s-23 -82.5 -49 -118.5c-54 -74 -142 -111 -264 -111c-58.667 0 -112 6.33301 -160 19z" />
    <glyph glyph-name="approxequal" unicode="&#x2248;" horiz-adv-x="1024" 
d="M138 712l-121.999 80.001c24.667 57.333 49.667 104.666 75 141.999c56 82 130.667 123 224 123c47.333 0 120 -20.333 218 -61l122 -46c20 -6 41.333 -9 64 -9c35.333 0 64.5 8.5 87.5 25.5s47.833 48.5 74.5 94.5l127 -74c-46 -94 -91.333 -158.333 -136 -193
c-54 -42 -114.333 -63 -181 -63c-39.333 0 -137 31 -293 93c-38.667 14.667 -72.334 22 -101.001 22c-32.667 0 -60.667 -9.66699 -84 -29s-48.333 -54.333 -75 -105zM138.001 326.001l-121.998 80.001c23.333 57.333 48.333 104.666 75 141.999c56 82 130.667 123 224 123
c46 0 118.667 -20 218 -60l121 -46c21.333 -6 43.666 -9 66.999 -9c34 0 62.5 8.5 85.5 25.5s47.833 48.167 74.5 93.5l127 -74c-44.667 -94 -90 -158.333 -136 -193c-54.667 -41.333 -115 -62 -181 -62c-41.333 0 -139 30.667 -293 92
c-38.667 14.667 -72.334 22 -101.001 22c-31.333 0 -59.666 -10 -84.999 -30c-22.667 -19.333 -47.334 -54 -74.001 -104z" />
    <glyph glyph-name="notequal" unicode="&#x2260;" horiz-adv-x="1126" 
d="M582 950l122 261l161 -75l-87 -186h280v-173h-360l-74 -157h434v-173h-514l-122 -261l-161 75l87 186h-280v173h360l74 157h-434v173h514z" />
    <glyph glyph-name="lessequal" unicode="&#x2264;" horiz-adv-x="1024" 
d="M955 1321v-207l-655 -298l655 -297v-207l-887 408v185zM955 253v-204h-887v204h887z" />
    <glyph glyph-name="greaterequal" unicode="&#x2265;" horiz-adv-x="1024" 
d="M68 312v207l655 298l-655 297v207l887 -416v-185zM68 49v204h887v-204h-887z" />
    <glyph glyph-name="lozenge" unicode="&#x25ca;" horiz-adv-x="1365" 
d="M683 1419l531 -736l-531 -736l-532 736zM683 1238l-404 -555l404 -554l403 554z" />
    <glyph glyph-name="apple" unicode="&#xf000;" horiz-adv-x="1365" 
d="M984 1416v-20.999c0 -106.667 -42.333 -195 -127 -265c-32.667 -26.667 -61.5 -44.834 -86.5 -54.501s-55.167 -14.5 -90.5 -14.5c0 94 28 174.333 84 241c54 64 127.333 102 220 114zM1277 936.001c-42.667 -32.667 -75.3369 -63.333 -98.0039 -92
c-44.667 -56.667 -67 -121 -67 -193c0 -67.333 17.833 -128.166 53.5 -182.499s85.5 -95.5 149.5 -123.5c-43.333 -107.333 -89.666 -192.666 -138.999 -255.999c-73.333 -95.333 -142.666 -143 -207.999 -143c-20.667 0 -37.667 2.33301 -51 7l-114 45
c-12 4.66699 -38 7 -78 7c-36.667 0 -62.167 -1.83301 -76.5 -5.5s-49.5 -16.834 -105.5 -39.501c-28.667 -11.333 -55 -17 -79 -17c-36.667 0 -74.5 14.167 -113.5 42.5s-76.5 69.833 -112.5 124.5c-47.333 70.667 -86.666 147.667 -117.999 231
c-36 99.333 -54 195.333 -54 288c0 122 33.667 227.167 101 315.5s161.333 132.5 282 132.5c23.333 0 47.333 -2.66699 72 -8s53.334 -14.333 86.001 -27c46 -17.333 78.333 -26 97 -26c24 0 53.667 6.66699 89 20c50.667 19.333 87.5 31.666 110.5 36.999s48.833 8 77.5 8
c125.333 0 224 -48.333 296 -145z" />
    <glyph glyph-name="fi" unicode="&#xf001;" horiz-adv-x="1111" 
d="M968 997l-0.000976562 -997.001h-198v840h-357v-840h-198v840h-176v157h176v44c0 114 25.333 196.667 76 248c25.333 25.333 58.333 44.333 99 57s90.334 19 149.001 19h137v-157h-111c-60 0 -100.333 -10.167 -121 -30.5s-31 -62.166 -31 -125.499v-55h555z
M769.999 1158v207h198v-207h-198z" />
    <glyph glyph-name="fl" unicode="&#xf002;" horiz-adv-x="1111" 
d="M413 997l231.999 -0.000976562v-157h-232v-840h-198v840h-176v157h176v44c0 114 25.333 196.667 76 248c25.333 25.333 58.333 44.333 99 57s90.334 19 149.001 19h137v-157h-111c-60 0 -100.333 -10.167 -121 -30.5s-31 -62.166 -31 -125.499v-55zM967.999 -0.000976562
h-198v1365h198v-1365z" />
    <glyph glyph-name=".null" horiz-adv-x="0" 
 />
    <glyph glyph-name="nonmarkingreturn" 
 />
    <glyph glyph-name="Idotaccent" 
 />
    <glyph glyph-name="dotlessi" 
 />
    <glyph glyph-name="Lslash" 
 />
    <glyph glyph-name="lslash" 
 />
    </font>
</defs>
</svg>
